<?xml version="1.0"?>
<svg xmlns="http://www.w3.org/2000/svg" viewBox="0 0 512 512" width="512px" height="512px" class=""><g><path d="m512 256c0 141.386719-114.613281 256-256 256s-256-114.613281-256-256 114.613281-256 256-256 256 114.613281 256 256zm0 0" fill="#ffce00" data-original="#FFCE00" class="" style="fill:#FFF" data-old_color="#9F9C92"/><path d="m512 256c0-7.144531-.308594-14.21875-.882812-21.214844l-134.117188-134.117187-259.332031 310.664062 97.390625 97.394531c13.332031 2.144532 27.003906 3.273438 40.941406 3.273438 141.386719 0 256-114.613281 256-256zm0 0" fill="#ffb600" data-original="#FFB600" class="active-path" style="fill:#FFF" data-old_color="#FFB600"/><path d="m135 100.667969h242v310.667969h-242zm0 0" fill="#613394" data-original="#613394" class=""/><path d="m262 100.667969h115v310.667969h-115zm0 0" fill="#4b1b7a" data-original="#4B1B7A" class=""/><path d="m117.667969 100.667969h53.332031v310.667969h-53.332031zm0 0" fill="#4b1b7a" data-original="#4B1B7A" class=""/><path d="m200.332031 143h134v26.667969h-134zm0 0" fill="#fff" data-original="#FFF" class="" style="fill:#DFDFDF" data-old_color="#D3CFD3"/><path d="m262 143h72.332031v26.667969h-72.332031zm0 0" fill="#e9edf5" data-original="#E9EDF5" class=""/><path d="m225 193h84.667969v15.332031h-84.667969zm0 0" fill="#fff" data-original="#FFF" class="" style="fill:#DFDFDF" data-old_color="#D3CFD3"/><path d="m262.082031 193h47.582031v15.332031h-47.582031zm0 0" fill="#e9edf5" data-original="#E9EDF5" class=""/><path d="m203.726562 295.347656c0-16.945312 13.734376-30.679687 30.679688-30.679687 12.128906 0 22.617188 7.042969 27.59375 17.261719 4.976562-10.21875 15.464844-17.261719 27.59375-17.261719 16.945312 0 30.679688 13.734375 30.679688 30.679687 0 41.066406-58.273438 64.765625-58.273438 64.765625s-58.273438-27.921875-58.273438-64.765625zm0 0" fill="#b674f2" data-original="#B674F2" class=""/><path d="m262 360.113281s58.273438-23.699219 58.273438-64.765625c0-16.945312-13.734376-30.679687-30.679688-30.679687-12.128906 0-22.617188 7.042969-27.59375 17.261719zm0 0" fill="#8f4cd6" data-original="#8F4CD6" class="" style="fill:#8F4CD6"/></g> </svg>
