<?xml version="1.0" encoding="iso-8859-1"?>
<!-- Generator: Adobe Illustrator 19.0.0, SVG Export Plug-In . SVG Version: 6.00 Build 0)  -->
<svg version="1.1" id="Layer_1" xmlns="http://www.w3.org/2000/svg" xmlns:xlink="http://www.w3.org/1999/xlink" x="0px" y="0px"
	 viewBox="0 0 512 512" style="enable-background:new 0 0 512 512;" xml:space="preserve">
<polygon style="fill:#A67EFF;" points="438.527,504.396 256,425.736 73.473,504.396 73.473,32.433 438.527,32.433 "/>
<polyline style="fill:#52DBFF;" points="438.527,425.736 73.473,425.736 73.473,347.075 438.527,347.075 "/>
<polyline style="fill:#00DCAB;" points="438.527,347.075 73.473,347.075 73.473,268.415 438.527,268.415 "/>
<polyline style="fill:#FFDD00;" points="438.527,268.415 73.473,268.415 73.473,189.754 438.527,189.754 "/>
<polyline style="fill:#FF8522;" points="438.527,189.754 73.473,189.754 73.473,111.094 438.527,111.094 "/>
<polyline style="fill:#FA496E;" points="438.527,111.094 73.473,111.094 73.473,32.433 438.527,32.433 "/>
<polyline style="fill:#E23760;" points="438.527,62.848 73.473,62.848 73.473,32.433 438.527,32.433 "/>
<path style="fill:#FA496E;" d="M256,189.018c-25.504-24.213-65.801-23.832-90.815,1.183l0,0
	c-25.004,25.004-25.396,65.277-1.213,90.783l-0.031,0.031l1.244,1.244L256,373.075l90.815-90.815l1.244-1.244l-0.031-0.031
	c24.184-25.505,23.791-65.779-1.213-90.783l0,0C321.8,165.186,281.504,164.805,256,189.018z"/>
<path style="fill:#E6E6E6;" d="M491.982,32.433H20.019c-6.857,0-12.415-5.558-12.415-12.415l0,0c0-6.857,5.558-12.415,12.415-12.415
	h471.963c6.857,0,12.415,5.558,12.415,12.415l0,0C504.396,26.875,498.837,32.433,491.982,32.433z"/>
<path d="M491.982,0H117.15c-4.2,0-7.604,3.405-7.604,7.604s3.404,7.604,7.604,7.604h374.832c2.652,0,4.811,2.157,4.811,4.811
	s-2.159,4.811-4.811,4.811h-53.455H73.474H20.019c-2.652,0-4.811-2.157-4.811-4.811s2.159-4.811,4.811-4.811h71.784
	c4.2,0,7.604-3.405,7.604-7.604S96.003,0,91.803,0H20.019C8.98,0,0,8.98,0,20.019s8.98,20.019,20.019,20.019H65.87v464.359
	c0,2.559,1.288,4.946,3.425,6.353c2.136,1.406,4.839,1.643,7.188,0.631L256,434.016l179.517,77.364
	c0.964,0.416,1.988,0.62,3.008,0.62c1.464,0,2.921-0.423,4.18-1.251c2.137-1.406,3.425-3.794,3.425-6.353V40.037h45.851
	c11.039,0,20.019-8.98,20.019-20.019S503.021,0,491.982,0z M81.078,418.132v-63.454h145.773l23.773,23.773
	c1.426,1.427,3.36,2.227,5.378,2.227c2.018,0,3.95-0.801,5.378-2.227l23.773-23.773h145.773v63.454H81.078z M300.358,339.47
	l53.079-53.08c0.249-0.249,0.48-0.515,0.688-0.794c2.782-3.002,5.266-6.212,7.475-9.574h69.323v63.447L300.358,339.47
	L300.358,339.47z M369.196,260.815c2.902-8.078,4.382-16.685,4.274-25.504c-0.167-13.64-4.099-26.688-11.251-37.954h68.704v63.458
	H369.196z M358.262,235.498c0.185,15.05-5.411,29.346-15.753,40.255c-0.144,0.151-0.28,0.308-0.409,0.468L256,362.321
	l-46.306-46.307c-2.971-2.97-7.784-2.97-10.754,0c-2.97,2.97-2.97,7.784,0,10.753l12.703,12.703H81.078v-63.447H150.4
	c2.206,3.358,4.686,6.563,7.463,9.562c0.214,0.284,0.448,0.555,0.703,0.808l19.083,19.084c2.97,2.97,7.783,2.971,10.754,0
	c2.97-2.97,2.97-7.783,0-10.753l-18.503-18.503c-0.13-0.16-0.267-0.317-0.41-0.468c-10.342-10.909-15.938-25.205-15.753-40.255
	c0.186-15.077,6.16-29.254,16.826-39.92c10.669-10.67,24.853-16.645,39.937-16.825c15.062-0.138,29.358,5.425,40.266,15.78
	c2.935,2.786,7.537,2.786,10.471,0c10.907-10.356,25.186-15.925,40.264-15.78c15.084,0.18,29.268,6.155,39.938,16.825
	C352.103,206.243,358.079,220.42,358.262,235.498z M142.805,260.815H81.078v-63.458h68.704
	c-7.152,11.266-11.085,24.313-11.252,37.954C138.423,244.13,139.903,252.736,142.805,260.815z M81.078,433.34h138.066
	L81.078,492.839V433.34z M292.858,433.34h138.066v59.499L292.858,433.34z M430.923,103.49h-70.458c-4.2,0-7.604,3.405-7.604,7.604
	c0,4.199,3.404,7.604,7.604,7.604h70.458v63.451h-81.56c-13.124-11.811-29.906-18.391-47.681-18.603
	c-16.719-0.222-32.694,5.239-45.682,15.434c-12.987-10.194-28.957-15.654-45.683-15.434c-17.775,0.212-34.556,6.792-47.681,18.603
	H81.078v-63.451h254.04c4.2,0,7.604-3.405,7.604-7.604c0-4.199-3.404-7.604-7.604-7.604H81.078V40.037h349.846v63.453H430.923z"/>
<g>
</g>
<g>
</g>
<g>
</g>
<g>
</g>
<g>
</g>
<g>
</g>
<g>
</g>
<g>
</g>
<g>
</g>
<g>
</g>
<g>
</g>
<g>
</g>
<g>
</g>
<g>
</g>
<g>
</g>
</svg>
