<?xml version="1.0" encoding="iso-8859-1"?>
<!-- Generator: Adobe Illustrator 19.0.0, SVG Export Plug-In . SVG Version: 6.00 Build 0)  -->
<svg version="1.1" id="Layer_1" xmlns="http://www.w3.org/2000/svg" xmlns:xlink="http://www.w3.org/1999/xlink" x="0px" y="0px"
	 viewBox="0 0 512 512" style="enable-background:new 0 0 512 512;" xml:space="preserve">
<path style="fill:#FFDD00;" d="M354.662,186.937h149.734v278.575H354.662h-56.59c-19.392,0-35.112-15.72-35.112-35.112l0,0
	c0-19.392,15.72-35.112,35.112-35.112h21.478c19.392,0,35.112-15.72,35.112-35.112l0,0c0-19.392-15.72-35.112-35.112-35.112H7.604
	V46.489h316.298c16.988,0,30.76,13.771,30.76,30.76v278.575"/>
<path style="fill:#79579E;" d="M354.383,355.857c0.186,1.416,0.279,2.855,0.279,4.318c0,4.248-0.754,8.311-2.124,12.083
	c-4.933,13.441-17.84,23.029-32.988,23.029h-21.474c-9.693,0-18.479,3.935-24.828,10.284c-0.522,0.522-1.033,1.056-1.497,1.613
	c-5.479,6.187-8.787,14.312-8.787,23.214V325.063h56.586c9.693,0,18.479,3.935,24.828,10.284
	C349.775,340.745,353.42,347.883,354.383,355.857z"/>
<path style="fill:#FF8522;" d="M354.662,139.347v35.112c0-19.396-15.716-35.112-35.112-35.112H7.604v-46.43H319.55
	c19.396,0,35.112,15.716,35.112,35.112V139.347z"/>
<path style="fill:#A67EFF;" d="M504.399,419.087v46.425H298.078c-19.395,0-35.11-15.715-35.11-35.11
	c0-8.902,3.305-17.033,8.78-23.217c6.418,7.3,15.836,11.903,26.33,11.903H504.399z"/>
<polygon style="fill:#FF8522;" points="504.396,233.366 504.396,279.795 354.662,279.795 354.662,278.634 354.662,267.317 
	354.662,233.366 "/>
<polygon style="fill:#FA496E;" points="504.396,186.937 504.396,233.366 354.662,233.366 354.662,232.205 354.662,220.888 
	354.662,186.937 "/>
<path style="fill:#52DBFF;" d="M504.399,372.652v46.435H298.078c-10.493,0-19.912-4.603-26.33-11.903
	c0.466-0.558,0.973-1.095,1.501-1.612c6.347-6.347,15.137-10.281,24.829-10.281h21.474c15.147,0,28.054-9.591,32.981-23.035
	l2.129,0.395H504.399z"/>
<path style="fill:#00DCAB;" d="M504.396,326.224v46.429H354.662l-2.124-0.394c1.37-3.773,2.124-7.835,2.124-12.083
	c0-1.463-0.093-2.902-0.279-4.318l0.279-0.034v-29.599H504.396z"/>
<path style="fill:#A67EFF;" d="M354.662,313.747v42.075l-0.274,0.041c-0.973-7.979-4.613-15.117-10.007-20.51
	c-6.357-6.357-15.137-10.291-24.829-10.291H7.607v-46.425h311.945C338.947,278.637,354.662,294.351,354.662,313.747z"/>
<path style="fill:#FA496E;" d="M354.662,77.248v50.782c0-19.396-15.716-35.112-35.112-35.112H7.604v-46.43h316.298
	C340.896,46.489,354.662,60.255,354.662,77.248z"/>
<path style="fill:#FF7224;" d="M354.662,128.048v42.075l-0.274,0.041c-0.973-7.979-4.613-15.117-10.007-20.51
	c-6.357-6.357-15.137-10.291-24.829-10.291h-22.224V92.938h22.224C338.947,92.938,354.662,108.652,354.662,128.048z"/>
<path style="fill:#E23760;" d="M354.662,81.623v42.075l-0.274,0.041c-0.973-7.979-4.613-15.117-10.007-20.51
	c-6.357-6.357-15.137-10.291-24.829-10.291h-22.224V46.513h22.224C338.947,46.513,354.662,62.228,354.662,81.623z"/>
<path style="fill:#52DBFF;" d="M354.662,278.634v1.161v33.951c0-19.396-15.716-35.112-35.112-35.112H7.604v-46.43H319.55
	c19.396,0,35.112,15.716,35.112,35.112V278.634z"/>
<path style="fill:#FFBC00;" d="M354.662,174.472v42.075l-0.274,0.041c-0.973-7.979-4.613-15.117-10.007-20.51
	c-6.357-6.357-15.137-10.291-24.829-10.291h-22.224v-46.425h22.224C338.947,139.362,354.662,155.077,354.662,174.472z"/>
<path style="fill:#00DCAB;" d="M354.662,232.205v1.161v33.951c0-19.396-15.716-35.112-35.112-35.112H7.604v-46.429H319.55
	c19.396,0,35.112,15.716,35.112,35.112V232.205z"/>
<path style="fill:#00AEFD;" d="M354.662,267.322v42.075l-0.274,0.041c-0.973-7.979-4.613-15.117-10.007-20.51
	c-6.357-6.357-15.137-10.291-24.829-10.291h-22.224v-46.425h22.224C338.947,232.212,354.662,247.927,354.662,267.322z"/>
<path style="fill:#02BC90;" d="M354.662,220.897v42.075l-0.274,0.041c-0.973-7.979-4.613-15.117-10.007-20.51
	c-6.357-6.357-15.137-10.291-24.829-10.291h-22.224v-46.425h22.224C338.947,185.787,354.662,201.502,354.662,220.897z"/>
<g>
	<path style="fill:#8666DD;" d="M390.989,419.087v46.425h-92.91c-19.395,0-35.11-15.715-35.11-35.11
		c0-8.902,3.305-17.033,8.78-23.217c6.418,7.3,15.836,11.903,26.33,11.903H390.989z"/>
	<path style="fill:#8666DD;" d="M354.662,313.747v42.075l-0.274,0.041c-0.973-7.979-4.613-15.117-10.007-20.51
		c-6.357-6.357-15.137-10.291-24.829-10.291h-22.224v-46.425h22.224C338.947,278.637,354.662,294.351,354.662,313.747z"/>
</g>
<path style="fill:#00AEFD;" d="M390.989,372.652v46.435h-92.91c-10.493,0-19.912-4.603-26.33-11.903
	c0.466-0.558,0.973-1.095,1.501-1.612c6.347-6.347,15.137-10.281,24.829-10.281h21.474c15.147,0,28.054-9.591,32.981-23.035
	l2.129,0.395H390.989z"/>
<rect x="354.659" y="326.22" style="fill:#02BC90;" width="36.327" height="46.429"/>
<rect x="354.659" y="279.795" style="fill:#FFBC00;" width="36.327" height="46.429"/>
<rect x="354.659" y="233.371" style="fill:#FF7224;" width="36.327" height="46.429"/>
<rect x="354.659" y="186.936" style="fill:#E23760;" width="36.327" height="46.429"/>
<path d="M504.396,179.333h-142.13V77.248c0-21.154-17.209-38.364-38.362-38.364H7.604C3.405,38.885,0,42.289,0,46.489v278.575
	c0,4.199,3.405,7.604,7.604,7.604h247.753v97.732c0,23.553,19.162,42.716,42.716,42.716h206.323c4.199,0,7.604-3.405,7.604-7.604
	V186.937C512,182.737,508.595,179.333,504.396,179.333z M491.219,333.828h5.573v31.221H361.98c0.182-1.601,0.286-3.225,0.286-4.874
	c0-1.031,0-26.347,0-26.347h103.607c4.199,0,7.604-3.405,7.604-7.604c0-4.199-3.405-7.604-7.604-7.604H362.266v-31.221h134.526
	v31.221h-5.573c-4.199,0-7.604,3.405-7.604,7.604C483.615,330.424,487.019,333.828,491.219,333.828z M362.266,272.191v-31.221
	h134.526v31.221H362.266z M347.058,141.815c-7.438-6.278-17.036-10.072-27.508-10.072H102.91c-4.199,0-7.604,3.405-7.604,7.604
	c0,4.199,3.405,7.604,7.604,7.604h216.64c15.167,0,27.508,12.34,27.508,27.508v13.784c-7.438-6.278-17.036-10.072-27.508-10.072
	H15.208v-31.221h62.356c4.199,0,7.604-3.405,7.604-7.604c0-4.199-3.405-7.604-7.604-7.604H15.208v-31.222H319.55
	c15.167,0,27.508,12.34,27.508,27.508V141.815z M15.208,193.38H319.55c15.167,0,27.508,12.34,27.508,27.508v13.785
	c-7.438-6.278-17.036-10.072-27.508-10.072H15.208V193.38z M357.237,380.258h139.555v31.221H298.076
	c-5.275,0-10.375-1.522-14.734-4.293c4.262-2.714,9.313-4.295,14.73-4.295h21.478C335.848,402.891,350.038,393.714,357.237,380.258z
	 M496.792,194.541v31.221H362.266v-31.221H496.792z M323.903,54.093c12.768,0,23.155,10.387,23.155,23.156v18.138
	c-7.438-6.278-17.036-10.072-27.508-10.072H15.208V54.093H323.903z M15.208,286.238h218.49c4.199,0,7.604-3.405,7.604-7.604
	s-3.405-7.604-7.604-7.604H15.208V239.81H319.55c15.167,0,27.508,12.34,27.508,27.508v13.785
	c-7.438-6.278-17.036-10.072-27.508-10.072h-60.505c-4.199,0-7.604,3.405-7.604,7.604c0,4.199,3.405,7.604,7.604,7.604h60.505
	c15.167,0,27.508,12.34,27.508,27.508v13.773c-7.437-6.274-17.039-10.061-27.508-10.061H15.208V286.238z M319.55,332.667
	c15.167,0,27.508,12.34,27.508,27.508c0,15.168-12.34,27.508-27.508,27.508h-21.478c-10.472,0-20.07,3.794-27.508,10.072v-65.088
	L319.55,332.667L319.55,332.667z M298.073,457.907c-15.167,0-27.508-12.34-27.508-27.508c0-4.192,0.947-8.167,2.631-11.726
	c7.186,5.158,15.871,8.014,24.88,8.014h198.716v31.221H298.073z"/>
<g>
</g>
<g>
</g>
<g>
</g>
<g>
</g>
<g>
</g>
<g>
</g>
<g>
</g>
<g>
</g>
<g>
</g>
<g>
</g>
<g>
</g>
<g>
</g>
<g>
</g>
<g>
</g>
<g>
</g>
</svg>
