<?xml version="1.0" encoding="iso-8859-1"?>
<!-- Generator: Adobe Illustrator 19.0.0, SVG Export Plug-In . SVG Version: 6.00 Build 0)  -->
<svg version="1.1" id="Layer_1" xmlns="http://www.w3.org/2000/svg" xmlns:xlink="http://www.w3.org/1999/xlink" x="0px" y="0px"
	 viewBox="0 0 512 512" style="enable-background:new 0 0 512 512;" xml:space="preserve">
<polygon style="fill:#A67EFF;" points="444.114,512 256,430.932 67.886,512 67.886,25.59 444.114,25.59 "/>
<polyline style="fill:#52DBFF;" points="444.114,430.932 67.886,430.932 67.886,349.863 444.114,349.863 "/>
<polyline style="fill:#00DCAB;" points="444.114,349.863 67.886,349.863 67.886,268.795 444.114,268.795 "/>
<polyline style="fill:#FFDD00;" points="444.114,268.795 67.886,268.795 67.886,187.726 444.114,187.726 "/>
<polyline style="fill:#FF8522;" points="444.114,187.726 67.886,187.726 67.886,106.658 444.114,106.658 "/>
<polyline style="fill:#FA496E;" points="444.114,106.658 67.886,106.658 67.886,25.59 444.114,25.59 "/>
<polyline style="fill:#E23760;" points="444.114,56.935 67.886,56.935 67.886,25.59 444.114,25.59 "/>
<path style="fill:#FA496E;" d="M256,186.968c-26.284-24.954-67.815-24.561-93.595,1.219l0,0
	c-25.769,25.769-26.174,67.276-1.25,93.562l-0.032,0.032l1.282,1.282L256,376.657l93.595-93.595l1.282-1.282l-0.032-0.032
	c24.924-26.285,24.52-67.793-1.25-93.562l0,0C323.815,162.406,282.284,162.012,256,186.968z"/>
<path style="fill:#666666;" d="M499.205,25.59H12.795C5.728,25.59,0,19.861,0,12.795l0,0C0,5.728,5.728,0,12.795,0h486.41
	C506.272,0,512,5.728,512,12.795l0,0C512,19.861,506.272,25.59,499.205,25.59z"/>
<g>
</g>
<g>
</g>
<g>
</g>
<g>
</g>
<g>
</g>
<g>
</g>
<g>
</g>
<g>
</g>
<g>
</g>
<g>
</g>
<g>
</g>
<g>
</g>
<g>
</g>
<g>
</g>
<g>
</g>
</svg>
