<?xml version="1.0" encoding="iso-8859-1"?>
<!-- Generator: Adobe Illustrator 19.0.0, SVG Export Plug-In . SVG Version: 6.00 Build 0)  -->
<svg version="1.1" id="Layer_1" xmlns="http://www.w3.org/2000/svg" xmlns:xlink="http://www.w3.org/1999/xlink" x="0px" y="0px"
	 viewBox="0 0 512 512" style="enable-background:new 0 0 512 512;" xml:space="preserve">
<path style="fill:#F9C5C5;" d="M412.018,230.361v94.414c0,33.492-16.731,63.72-43.004,81.81
	c-22.592,15.555-35.743,41.533-35.743,68.962v28.848H175.137v-82.205c-24.407-30.106-37.721-67.674-37.721-106.429V131.566
	c0-7.473,3.022-14.226,7.919-19.124c4.887-4.898,11.641-7.919,19.114-7.919c14.936,0,27.043,12.107,27.043,27.043V76.81
	c0-7.473,3.022-14.226,7.919-19.124c4.887-4.898,11.651-7.919,19.114-7.919c14.936,0,27.043,12.107,27.043,27.043V34.638
	c0-7.463,3.022-14.216,7.919-19.114c4.887-4.898,11.641-7.919,19.114-7.919c14.936,0,27.033,12.107,27.033,27.033v34.06
	c0-7.473,3.032-14.226,7.919-19.124c4.898-4.898,11.661-7.919,19.124-7.919c14.936,0,27.033,12.107,27.033,27.043v161.662
	c0-16.092,13.06-29.142,29.152-29.142c8.051,0,15.342,3.265,20.615,8.538C408.753,215.029,412.018,222.309,412.018,230.361z"/>
<g>
	<path style="fill:#E5A1A1;" d="M339.446,315.628c0,0-38.593,146.219-164.309,168.648v-62.087
		c-24.407-30.106-37.721-67.674-37.721-106.429v-98.895l145.631,45.245L339.446,315.628z"/>
	<path style="fill:#E5A1A1;" d="M363.657,183.021c42.268,5.433-163.261,53.961-226.241,53.87V131.566
		c0-7.473,3.022-14.226,7.919-19.124c4.887-4.898,11.641-7.919,19.114-7.919c14.936,0,27.043,12.107,27.043,27.043V76.81
		c0-7.473,3.022-14.226,7.919-19.124c4.887-4.898,11.651-7.919,19.114-7.919c14.936,0,27.043,12.107,27.043,27.043V34.638
		C245.569,34.638,255.791,169.155,363.657,183.021z"/>
	<path style="fill:#E5A1A1;" d="M299.646,67.936c0,0,27.377,74.151,61.663,87.013c34.286,12.862-52.406,38.718-52.406,38.718
		l-9.126-34.981"/>
	<path style="fill:#E5A1A1;" d="M403.48,209.756c0,0-49.757,24.103-49.757,81.576s-25.046-77.895-25.046-77.895l25.036-12.705
		v29.629c0-16.092,13.06-29.142,29.152-29.142C390.916,201.218,398.207,204.483,403.48,209.756z"/>
</g>
<path style="fill:#FA496E;" d="M411.592,209.198c0.03,4.188-0.264,8.366-0.882,12.513c-1.42-4.563-3.934-8.66-7.23-11.955
	c-5.273-5.273-12.563-8.538-20.615-8.538c-1.896,0-3.762,0.183-5.557,0.537c-13.446,2.586-23.596,14.409-23.596,28.605v70.99
	l-14.267,14.277l-83.655,83.655c0,0-0.01-0.01-0.02-0.02l-83.635-83.635l-22.531-22.541l-8.883-8.872l-3.316-3.316l-10.333-10.343
	l-3.265-3.265c-6.753-6.743-12.056-14.368-15.94-22.521c-5.263-11.042-7.899-23.028-7.899-35.013c0-0.183,0-0.375,0.01-0.558
	c0.132-20.635,8.082-41.219,23.829-56.967c4.218-4.218,8.781-7.869,13.598-10.961c16.254-10.464,35.419-14.541,53.955-12.259
	c0.041,0,0.081,0.01,0.122,0.01c17.329,2.17,34.081,9.907,47.384,23.21l6.692,6.692l10.211,10.221c0.01,0.01,0.02,0.01,0.02,0.01
	l16.924-16.924c7.94-7.95,17.126-13.912,26.922-17.877c17.238-6.997,36.382-7.828,54.077-2.505
	c12.462,3.732,24.214,10.535,34.06,20.381l0.01,0.01C403.51,167.979,411.45,188.563,411.592,209.198z"/>
<g>
	<path style="fill:#E23760;" d="M255.791,399.283c0,0,58.771-75.533,97.922-147.618v49.686l-14.267,14.277L255.791,399.283z"/>
	<path style="fill:#E23760;" d="M411.592,209.198c0.03,4.188-0.264,8.366-0.882,12.513c-1.42-4.563-3.934-8.66-7.23-11.955
		c-5.273-5.273-12.563-8.538-20.615-8.538c-1.896,0-3.762,0.183-5.557,0.537c7.281-18.972,11.397-36.109,10.475-49.514
		C403.51,167.979,411.45,188.563,411.592,209.198z"/>
	<path style="fill:#E23760;" d="M146.167,184.538c-29.092,39.647-4.877,90.804,28.118,133.24l-2.15-2.15l-22.531-22.541
		l-8.883-8.872l-3.316-3.316l-10.333-10.343l-3.265-3.265c-6.753-6.743-12.056-14.368-15.94-22.521
		c-5.263-11.042-7.899-23.028-7.899-35.013c0-0.183,0-0.375,0.01-0.558c0.132-20.635,8.082-41.219,23.829-56.967
		c4.218-4.218,8.781-7.869,13.598-10.961c16.254-10.464,35.419-14.541,53.955-12.259c0.041,0,0.081,0.01,0.122,0.01
		c17.329,2.17,34.081,9.907,47.384,23.21l6.692,6.692l10.211,10.221C254.543,168.385,187.995,127.541,146.167,184.538z"/>
</g>
<path d="M412.021,317.17c-4.201,0-7.605,3.405-7.605,7.605c0,30.179-14.844,58.419-39.707,75.542
	c-24.442,16.833-39.036,44.955-39.036,75.227v28.851c0,4.2,3.404,7.605,7.605,7.605c4.201,0,7.605-3.405,7.605-7.605v-28.851
	c0-25.266,12.133-48.705,32.453-62.7c28.986-19.962,46.29-52.884,46.29-88.068C419.626,320.575,416.221,317.17,412.021,317.17z"/>
<path d="M382.871,193.608c-20.266,0-36.754,16.489-36.754,36.755v60.964c0,0.013,0.002,0.026,0.002,0.04v6.834l-90.327,90.327
	L129.186,261.913c-5.995-5.995-10.853-12.862-14.442-20.415c-1.761-3.697-3.222-7.57-4.343-11.513
	c-1.149-4.04-5.353-6.385-9.395-5.236c-4.04,1.149-6.384,5.355-5.236,9.395c1.353,4.759,3.117,9.434,5.239,13.889
	c4.334,9.12,10.195,17.407,17.422,24.634l11.381,11.382v31.711c0,39.452,13.379,78.08,37.731,109.091v79.543
	c0,4.2,3.405,7.605,7.605,7.605c4.2,0,7.605-3.405,7.605-7.605v-82.205c0-1.744-0.599-3.434-1.697-4.789
	c-23.237-28.662-36.034-64.758-36.034-101.64v-16.499L250.412,404.66c1.427,1.427,3.36,2.228,5.378,2.228l0,0
	c2.017,0,3.952-0.801,5.377-2.228l91.78-91.779c0.255,0.025,0.513,0.04,0.775,0.04c4.201,0,7.605-3.405,7.605-7.605v-3.96
	c0-0.003,0-0.007,0-0.01v-70.985c0-0.006-0.001-0.012-0.001-0.018c0.011-11.87,9.671-21.524,21.543-21.524
	c11.88,0,21.544,9.665,21.544,21.545v68.247c0,4.2,3.404,7.605,7.605,7.605c4.201,0,7.605-3.405,7.605-7.605v-68.247
	C419.626,210.097,403.137,193.608,382.871,193.608z"/>
<path d="M107.584,209.756l-0.002-0.125c0.007-0.128,0.011-0.257,0.012-0.384c0.125-19.5,7.793-37.838,21.591-51.638
	c3.781-3.781,7.927-7.121,12.347-9.944c14.401-9.271,31.77-13.215,48.909-11.105c0.084,0.01,0.169,0.019,0.253,0.027
	c16.328,2.079,31.127,9.346,42.787,21.006l16.931,16.941c2.968,2.969,7.783,2.97,10.752,0.002l15.312-15.3l1.614-1.625
	c7.052-7.053,15.266-12.509,24.411-16.216c15.536-6.296,32.947-7.098,49.038-2.257c11.571,3.465,22.244,9.853,30.863,18.472
	c8.76,8.766,15.208,19.647,18.649,31.467c1.174,4.033,5.39,6.351,9.428,5.176c4.033-1.174,6.35-5.394,5.175-9.427
	c-4.154-14.269-11.933-27.397-22.497-37.969c-9.039-9.038-19.958-16.04-31.834-20.466V68.698c0-9.244-3.602-17.943-10.147-24.501
	c-6.543-6.543-15.246-10.147-24.502-10.147c-7.195,0-13.884,2.207-19.427,5.979v-5.39c0-9.25-3.604-17.948-10.147-24.491
	C290.561,3.604,281.861,0,272.604,0c-19.1,0-34.639,15.539-34.639,34.638V48.12c-5.691-3.872-12.402-5.958-19.438-5.958
	c-19.1,0-34.638,15.544-34.638,34.648v26.014c-5.547-3.741-12.238-5.907-19.438-5.907c-9.264,0-17.964,3.606-24.496,10.152
	c-6.54,6.552-10.141,15.253-10.141,24.496v5.668c-4.023,2.857-7.839,6.078-11.381,9.62c-16.611,16.611-25.857,38.679-26.046,62.15
	c-0.009,0.25-0.011,0.506-0.011,0.751c0,4.2,3.405,7.605,7.605,7.605C104.179,217.361,107.584,213.956,107.584,209.756z
	 M326.679,49.26c5.195,0,10.077,2.022,13.742,5.687c3.675,3.682,5.698,8.565,5.698,13.752v53.539
	c-12.905-2.328-26.214-1.796-38.867,1.57V68.698C307.252,57.981,315.966,49.26,326.679,49.26z M253.174,34.638
	c0-10.713,8.715-19.428,19.429-19.428c5.194,0,10.076,2.021,13.746,5.692c3.671,3.671,5.693,8.549,5.693,13.737v34.06v60.703
	c-9.147,4.345-17.447,10.194-24.723,17.471l-11.526,11.53l-2.618-2.62L253.174,34.638L253.174,34.638z M218.526,57.372
	c5.195,0,10.076,2.021,13.741,5.687c3.674,3.681,5.698,8.565,5.698,13.752v64.332c-11.279-9.351-24.497-15.673-38.867-18.569V76.81
	C199.098,66.093,207.813,57.372,218.526,57.372z M164.449,112.128c6.765,0,12.721,3.409,16.204,8.672
	c-12.211,0.1-24.26,2.719-35.359,7.633c0.646-3.996,2.504-7.69,5.426-10.619C154.378,114.148,159.255,112.128,164.449,112.128z"/>
<g>
</g>
<g>
</g>
<g>
</g>
<g>
</g>
<g>
</g>
<g>
</g>
<g>
</g>
<g>
</g>
<g>
</g>
<g>
</g>
<g>
</g>
<g>
</g>
<g>
</g>
<g>
</g>
<g>
</g>
</svg>
