<?xml version="1.0" encoding="utf-8"?>
<!-- Generator: Adobe Illustrator 23.0.1, SVG Export Plug-In . SVG Version: 6.00 Build 0)  -->
<svg version="1.1" xmlns="http://www.w3.org/2000/svg" xmlns:xlink="http://www.w3.org/1999/xlink" x="0px" y="0px"
	 viewBox="0 0 1100 800" style="enable-background:new 0 0 1100 800;" xml:space="preserve">
<style type="text/css">
	.st0{fill:#FFFFFF;}
	.st1{fill:#F7F7F7;}
	.st2{fill:#C97F73;}
	.st3{fill:#305399;}
	.st4{fill:#7DB5DB;}
	.st5{fill:#3B455A;}
	.st6{fill:#D7E8F4;}
	.st7{fill:#006837;}
	.st8{fill:#587BC9;}
	.st9{fill:#34435A;}
	.st10{fill:#FF0000;}
	.st11{fill:#CCDEEA;}
	.st12{fill:#D1E3ED;}
	.st13{fill:#15529B;}
	.st14{fill:#F9CBB7;}
	.st15{fill:#6699C4;}
	.st16{fill:#FFFF00;}
	.st17{fill:#0000FF;}
</style>
<g id="background">
	<rect class="st0" width="1100" height="800"/>
</g>
<g id="shadow">
	<path class="st1" d="M1036.46,634.58H173.9c-27.28,0-49.61,8.94-49.61,19.86l0,0c0,7.57,10.71,14.17,26.35,17.53H74.69
		c-27.28,0-49.61,8.94-49.61,19.86l0,0c0,10.92,22.32,19.86,49.61,19.86h26.47c-7.39,3.47-11.88,7.96-11.88,12.85v7.95
		c0,10.92,22.32,19.86,49.61,19.86h849.72c27.28,0,49.61-8.94,49.61-19.86v-7.95c0-10.92-22.32-19.86-49.61-19.86l-57.78,0.44
		c4.4,0,11.55-1.39,16.34-4.18c8.41-4.9,8.78-12.36,4.67-18.53c-2.66-4-6.93-7.18-17.51-8.37l102.13,0.27
		c27.28,0,49.61-8.94,49.61-19.86l0,0C1086.07,643.52,1063.75,634.58,1036.46,634.58z"/>
</g>
<g id="object">
	<g>
		<g>
			<g>
				<g>
					<g>
						<polygon class="st2" points="709.63,439.76 690.3,576.44 696.42,679.42 683.67,684 670.79,588.72 644.74,421.88 						"/>
					</g>
				</g>
				<g>
					<polygon class="st3" points="682.99,682.81 681.44,693.04 684.86,712.49 696.29,711.44 698.51,682.64 696.84,678.01 					"/>
				</g>
			</g>
			<g>
				<g>
					<polygon class="st2" points="597.65,435.43 603.49,551.41 628.95,713.59 642.96,713.43 637.08,563.1 655.58,424.57 					"/>
				</g>
				<g>
					<polygon class="st3" points="629.19,710.82 611.25,723.9 613.46,733.71 646.26,725.97 643.63,711.8 					"/>
				</g>
			</g>
			<g>
				<polygon class="st4" points="594.52,452.8 594.79,587.41 611.04,678.21 648.58,672.22 647.74,567.33 655.8,452.12 
					651.98,434.67 597.69,440.7 				"/>
			</g>
			<g>
				<polygon class="st4" points="660.83,569.34 672.22,664.83 704.87,659.83 697.6,568.93 709.98,452.75 702.94,421.26 
					648.09,430.37 				"/>
			</g>
			<g>
				<g>
					<path class="st2" d="M736.61,191.7c-2.44-23.7-32.54-38.31-45.46-14.19c-3.88,7.25-6.98,15.16-7.18,23.39
						c-0.19,8.23,2.92,16.85,9.47,21.67c0.04,0.03,0.08,0.05,0.11,0.08c-0.73,1.99-1.45,3.98-2.17,5.97
						c-0.16,0.43-2.55,5.25-2.39,5.67c0.19,0.48,2.52,1.86,3,2.05c2.33,0.89,4.84,0.44,7.17,1.33c1.15,0.44,2.57-0.29,3.8-0.41
						c2.69-0.27,4.43-6.1,5.12-8.76c0.16-0.64,0.3-1.29,0.43-1.94C723.84,224.69,738.2,207.19,736.61,191.7z"/>
				</g>
				<g>
					<g>
						<path class="st5" d="M690.42,184.58c-4.48,5.22-5.38,12.32-5.48,18.97c-0.1,6.5-1.78,12.62-1.28,19.15
							c-0.83,0.88-2.24-0.01-3.07-0.88c-4.87-5.1-9.67-10.28-14.4-15.52c-0.48-0.53-0.96-1.08-1.18-1.76
							c-0.28-0.86-0.09-1.8,0.11-2.69c4.04-17.49,12.97-29.34,25.06-41.75c5.87-6.03,19.89-11.51,25.93-2.29
							c1.37,2.1,1.58,4.76,1.63,7.29c0.03,1.51,0.01,3.06-0.55,4.46c-2.23,5.59-7.61,4.42-12.14,5.61
							C699.43,176.66,694.2,180.18,690.42,184.58z"/>
					</g>
					<g>
						<path class="st5" d="M728.93,202.53c-0.79,5.1-2.89,10.7-5.17,15.28c-0.79,1.59-4.59,4.97-4.87,6.08
							c-0.8,3.23,4.73,11.97,6.04,15.1c11.44-4.2,22.88-8.4,34.33-12.61c0.88-0.32,1.8-0.67,2.39-1.4c0.54-0.66,0.73-1.54,0.89-2.38
							c3.19-16.57,1.24-32.22-2.76-48.29c-4-16.06-16.33-30.53-33.26-32.09c-13.68-1.27-24.72,7.25-21.94,21.99
							c2.1,11.12,14.86,15.4,20.88,23.72C729.22,193.14,729.8,197.83,728.93,202.53z"/>
					</g>
				</g>
			</g>
			<g>
				<path class="st6" d="M711.82,240.99c0.26,0.14,0.52,0.27,0.78,0.41c12.29,6.61,19.68,29.7,23.88,43.25
					c10.84,34.98,13.06,70.19,9.67,106.74c-1.83,19.68-4.54,39.27-7.65,58.79c-0.86,5.39-11.84,53.21-9.49,54.71
					c-24.05-15.38-48.61-30.17-74.96-40.68c-26.34-10.51-54.84-1.33-83.09,1.08c16.11-60.41,36.27-136.71,61.22-193.79
					c2.98-6.83,5.34-14.22,9.28-20.54c4.54-7.28,10.18-8.83,17.52-12.5c2.51-1.25,5.05-2.52,7.73-3.26
					C680.86,231.27,698.84,234.28,711.82,240.99z"/>
			</g>
		</g>
		<g>
			<g>
				<path class="st7" d="M695.37,269.39c-4.3-1.91-6.43-7.31-3.86-11.82c4.66-8.16,8.72-16.2,3.76-25.33
					c-6.03-11.1-20.97-15.21-31.84-8.81c-13.42,7.89-11.76,22.25-4.52,33.86c2.82,4.52,0.72,10.13-3.68,12.09h-53.28v0.72v18.94
					v32.99c-1.69,4.82-7.59,7.28-12.33,4.33c-11.61-7.23-25.97-8.88-33.85,4.54c-6.4,10.88-2.28,25.81,8.82,31.84
					c9.13,4.95,17.16,0.89,25.33-3.78c4.7-2.68,10.35-0.25,12.03,4.41v52.04h49.85c0.1,0,0.19,0.02,0.28,0.02h3.15
					c4.4-1.96,6.5-7.57,3.68-12.09c-7.24-11.61-8.89-25.96,4.52-33.86c10.88-6.4,25.81-2.29,31.84,8.81
					c4.96,9.12,0.9,17.16-3.76,25.33c-2.57,4.51-0.44,9.9,3.86,11.82h3.13c0.1,0,0.19-0.02,0.29-0.02h49.19v-51.18
					c-1.2-5.79-6.8-8.05-12.25-5.09c-8.26,4.48-15.58,8.48-24.71,3.52c-11.1-6.03-15.84-20.7-9.44-31.59
					c7.89-13.42,22.24-11.78,33.85-4.54c4.97,3.1,11.24,0.24,12.55-5.06v-30.86v-20.51v-0.72H695.37z"/>
			</g>
		</g>
	</g>
	<g>
		<g>
			<g>
				<path class="st2" d="M261.04,129.32c-17.34-22.93-56.17-19.88-64.33,15.86c-5.3,23.2,12.37,49.37,35.72,50.48l-0.13-0.84
					c0.86,0.15,1.73,0.26,2.62,0.31c14.72,0.77,26.03-10.9,30.54-24.05c3.44-10.06,3.23-21.12,0.78-31.47
					c-0.71-2.99-1.64-6.02-3.57-8.4C262.14,130.55,261.54,129.97,261.04,129.32z"/>
			</g>
			<g>
				<path class="st2" d="M220.48,208.24c-0.05,0.81-0.08,1.69,0.38,2.33c0.41,0.57,1.12,0.81,1.78,0.98
					c6.26,1.67,13.11,0.88,18.89-2.18c0.42-0.22,0.86-0.47,1.14-0.87c0.34-0.48,0.42-1.12,0.47-1.72
					c0.46-5.12,0.45-10.27-0.02-15.38c-0.16-1.71-0.43-3.54-1.57-4.77c-3.28-3.51-14.05-3.63-17.65-0.15
					C219.31,190.93,220.85,202.32,220.48,208.24z"/>
			</g>
			<g>
				<g>
					<path class="st5" d="M308.44,708.65l8.79,8.72c5.66,5.61,4.03,15.44-3.37,18.41c-4.36,1.75-10.41,1.27-18.63-4.72l-18.59-22.48
						l3.34-6.99l20.22-2.43L308.44,708.65z"/>
				</g>
				<g>
					<path class="st8" d="M326.55,461.36l5.96,136.79l-27.49,105.55l-27.92-1.43l-10.09-90.8c0,0-70.55-122.68-64.89-126.34
						C207.79,481.47,326.55,461.36,326.55,461.36z"/>
				</g>
			</g>
			<g>
				<g>
					<path class="st5" d="M166.14,708.76l-8.42,9.07c-5.42,5.84-3.38,15.59,4.13,18.25c4.43,1.57,10.46,0.84,18.41-5.49l17.64-23.23
						l-3.63-6.84l-20.3-1.59L166.14,708.76z"/>
				</g>
				<g>
					<path class="st8" d="M147.78,461.21l13.56,121.23l6.82,121.21l27.93-1.3l31.81-89.61c0,0,49.83-123.49,44.19-127.18
						C266.44,481.88,147.78,461.21,147.78,461.21z"/>
				</g>
			</g>
			<g>
				<path class="st6" d="M168.69,233.21c-25.22,25.8-31.96,65.89-35,103.23c-2.69,33.09-3.56,66.35-2.59,99.55
					c0.35,11.8,1.29,24.61,8.6,33.4c4.81,5.79,11.72,8.95,18.47,11.69c50.4,20.47,105.56,27.13,158.92,19.19
					c5.93-0.88,12.16-2.09,16.76-6.23c3.44-3.1,5.59-7.52,7.44-11.92c18.52-43.89,15.77-94.66,8.11-142.16
					c-5.51-34.21-13.88-69.11-33.71-96.46C279.44,193.52,210.74,190.2,168.69,233.21z"/>
			</g>
			<g>
				<path class="st9" d="M250.45,185.97c0.92-4.12,0.54-8.87,0.48-13.19c0-0.3-0.01-0.6-0.1-0.89c-0.46-1.47-2.81-1.36-3.76-0.14
					c-0.94,1.22-0.92,2.9-0.97,4.44c-0.13,3.83-1.36,8.11-4.76,9.87c-1.93,1-4.2,0.99-6.37,0.97c-3.39-0.04-6.85-0.09-10.05-1.19
					s-6.18-3.44-7.14-6.69c-0.88-2.98,0.01-6.3-1.01-9.24c-0.29-0.82-0.85-1.69-1.71-1.79c-1.71-0.2-0.9,2.64-1.06,3.53
					c-0.62,3.46-1.05,6.96-1.29,10.47c-1.11,15.98,19.7,17.45,30.56,12.78C247.63,193.04,249.6,189.78,250.45,185.97z"/>
			</g>
		</g>
		<g>
			<g>
				<path class="st10" d="M202.85,220.37c-12.72,8.97-9.9,23.14-1.73,34.11c3.33,4.48,1.37,10.56-3.29,12.64l-32.87,2.73
					l-18.88,1.57l-0.72,0.06l4.4,53.09c-1.59,4.55-7.01,7.11-11.75,4.67c-12.17-6.25-26.61-6.72-33.37,7.31
					c-5.48,11.37-0.15,25.91,11.41,31.01c9.5,4.19,17.18-0.52,24.93-5.84c4.28-2.94,9.83-1.26,12.1,2.87l4.35,52.43l0.72-0.06
					l20.44-1.7l31.8-2.67c5.18-1.75,6.46-8.11,2.96-12.81c-8.17-10.97-10.24-24.86,2.48-33.83c10.32-7.27,24.38-4.33,31.3,6.24
					c5.69,8.69,2.37,17.04-1.6,25.56c-2.4,5.14,0.13,10.48,5.33,11.41l52.09-4.2l-0.03-0.31l-0.33,0.03l-4.4-53.09
					c-2.32-4.22-8.08-5.85-12.36-2.67c-10.97,8.17-25.14,11.01-34.11-1.71c-7.28-10.31-3.64-25.19,6.92-32.12
					c8.68-5.7,16-2.18,24.53,1.79c4.71,2.19,10.15-0.86,11.71-5.3l-4.32-52.12l-51.53,4.27c-4.79-1.29-7.68-6.72-5.39-11.63
					c3.97-8.52,7.36-16.86,1.67-25.55C228.38,215.97,213.16,213.1,202.85,220.37z"/>
			</g>
		</g>
		<g>
			<g>
				<polygon class="st2" points="156.05,376.49 150,379.54 153.63,371.58 150.85,368.44 139.14,376.87 139.92,384.62 139.81,384.67 
					143.4,404.52 158.61,408.22 176.57,401.28 169.66,375.22 				"/>
			</g>
			<g>
				<path class="st11" d="M146,365.26c0,0-17.85,2.19-21.99,17.92c-4.14,15.73,8.31,29.91,14.15,31.47s16.56-0.08,16.56-0.08
					L146,365.26z"/>
			</g>
		</g>
	</g>
	<g>
		<g>
			<polygon class="st2" points="306.92,365.02 312.97,368.07 309.34,360.1 312.12,356.97 323.83,365.4 323.05,373.15 323.16,373.2 
				319.56,393.04 304.36,396.74 286.39,389.8 293.31,363.74 			"/>
		</g>
		<g>
			<path class="st11" d="M316.96,353.79c0,0,17.85,2.19,21.99,17.92c4.14,15.73-8.31,29.91-14.15,31.47
				c-5.83,1.56-16.56-0.08-16.56-0.08L316.96,353.79z"/>
		</g>
	</g>
	<g>
		<g>
			<g>
				<path class="st2" d="M715.46,438.59c-5.03,4.09-10.05,8.19-15.05,12.32c-1.8-2.16-3.6-4.33-5.41-6.49
					c2.8-3.61,5.6-7.23,8.4-10.84c-1.28-0.61-2.57-1.2-3.86-1.81c4.81-2.94,9.68-5.76,14.53-8.62c2.17,1.94,4.29,3.93,6.53,5.8
					C718.88,432.14,717.04,435.31,715.46,438.59z"/>
			</g>
			<g>
				<path class="st12" d="M717.28,261.33c-1.14,1.21-1.89,2.86-2.44,4.57c-2.28,7.1-1.74,14.69,0.95,21.49
					c4.26,10.77,11.48,19.48,16.15,29.75c5.34,11.75,9.12,23.67,12.99,35.89c-10.51,24.29-22.43,46.92-37.64,68.61
					c4.54,3.67,9.02,7.4,13.59,11.02c24.45-24.35,43.53-51.18,62.77-79.66c-6.13-17.21-12.15-33.99-19.54-50.83
					c-6.63-15.1-12.3-31.29-25.3-42.09C731.45,254,723.56,254.7,717.28,261.33z"/>
			</g>
		</g>
		<g>
			<g>
				<polygon class="st2" points="607.42,366.88 602.89,369.02 605.81,364.27 603.88,362.7 595.02,368.26 595.34,372.58 
					595.26,372.62 597.24,383.56 608.25,384.59 616.98,377.17 615.14,368.96 				"/>
			</g>
			<g>
				<path class="st6" d="M601,363.16c0,0-13.09,2.67-16.96,10.72c-3.87,8.05,4.38,13.87,8.54,14.11c4.15,0.24,12.03-1.52,12.03-1.52
					L601,363.16z"/>
			</g>
		</g>
	</g>
	<g>
		<g>
			<g>
				<g>
					<polygon class="st13" points="442.53,429.43 428.89,464.79 458.5,693.06 478.05,687.35 490.85,424.25 					"/>
				</g>
				<g>
					<polygon class="st13" points="528.71,408.5 538.16,569.99 515.89,694.29 492.75,687.66 502.64,569.23 472.92,411.52 					"/>
				</g>
				<g>
					<path class="st5" d="M491.72,675.39l27.88,10.26l-7.58,19.53l14.81,7.8c0,0,1.94,7.74-2.55,11.41s-37.21-19.75-37.21-19.75
						L491.72,675.39z"/>
				</g>
				<g>
					<path class="st5" d="M451.73,682.97l29.59,2.67l-2.25,20.83l16.33,3.69c0,0,3.88,6.97,0.5,11.68
						c-3.38,4.72-41.06-9.42-41.06-9.42L451.73,682.97z"/>
				</g>
			</g>
			<g>
				<path class="st9" d="M407.68,190.29c5.58,4.38,11.74,8.02,18.28,10.78c-7.02-10.29-12.62-21.54-16.58-33.34
					c-0.3-0.9-0.68-1.9-1.54-2.3c-0.8-0.38-1.75-0.09-2.58,0.23C390.49,171.37,397.96,182.65,407.68,190.29z"/>
			</g>
			<g>
				<g>
					<path class="st14" d="M425.75,201.52c4.24,3.3,9.73,6.54,15.87,6.08c7.24-0.54,11.67-5.9,13.9-10.88
						c7.36-16.46,0.02-73.98-40.22-61.46C378.76,146.62,408.16,187.84,425.75,201.52z"/>
				</g>
				<g>
					<path class="st9" d="M451.99,183.6c4,1.55,8.03-2.22,10.17-5.94c8.8-15.26,6.07-36.27-6.34-48.77
						c-10.38-10.47-31.55-9.51-24.79,7.47c2.4,6.02,10.46,11.24,13.59,17.61C449.1,163.08,450.47,173.69,451.99,183.6z"/>
				</g>
				<g>
					<path class="st9" d="M374.62,140.9c-9.28,18.75-3.3,41.74-9.92,61.59c16.29-2.9,31.24-12.72,40.37-26.52
						c8.96-13.54,36.25-36.9,20.51-51.4C409.57,109.8,382.75,124.47,374.62,140.9z"/>
				</g>
			</g>
			<g>
				<g>
					<path class="st14" d="M457.92,209.89c-2.42-5.3-4.83-10.6-7.25-15.9c-0.25-0.56-0.54-1.15-1.06-1.47
						c-1.02-0.61-2.29,0.1-3.26,0.79c-3.5,2.5-7,4.99-10.49,7.49c2.21,6.59,3.78,13.39,4.69,20.27c5.27-2.44,10.54-4.89,15.82-7.33
						c0.83-0.38,1.74-0.87,1.99-1.75C458.53,211.29,458.22,210.56,457.92,209.89z"/>
				</g>
				<g>
					<path class="st14" d="M432.65,203.08c1.06-0.76,2.13-1.52,3.19-2.28c-0.13-0.39-0.26-0.79-0.4-1.19L432.65,203.08z"/>
				</g>
			</g>
			<g>
				<path class="st4" d="M402.45,241.36c-9.05,18.95-7.41,39.5-4.44,59.04c6.71,44.24,6.47,96.16,25.11,137.5
					c28.95-2.27,83.44-19.85,112.05-25.05c2.62-39.12-2.4-61.48-8.97-105.04c-3.24-21.48-8.83-50.19-18.07-70.17
					c-7.56-16.36-25.93-36.82-51.06-34.17C433.51,205.94,410.67,224.12,402.45,241.36z"/>
			</g>
		</g>
		<g>
			<g>
				<path class="st15" d="M428.85,407.13l-12.69,0.03l13.11,0C429.13,407.15,429,407.13,428.85,407.13z"/>
			</g>
			<g>
				<path class="st16" d="M440.02,215.12c-13.4,7.93-11.71,22.28-4.44,33.87c2.83,4.52,0.74,10.13-3.65,12.1l-53.28,0.13l0,0.72
					l0.05,18.94l0.08,32.99c-1.67,4.83-7.57,7.3-12.32,4.36c-11.63-7.2-25.99-8.81-33.84,4.62c-6.37,10.9-2.22,25.82,8.9,31.82
					c9.14,4.93,17.17,0.85,25.32-3.84c4.69-2.7,10.35-0.28,12.04,4.38l0.13,52.03h0.02v-0.08l0.72,0l18.94,0l17.47,0l12.69-0.03
					c0.14,0,0.28,0.02,0.42,0.03l2.4,0c4.82-1.69,7.28-7.59,4.33-12.33c-7.23-11.61-8.88-25.96,4.54-33.85
					c10.88-6.4,25.81-2.28,31.84,8.82c4.96,9.13,0.89,17.16-3.77,25.33c-2.68,4.7-0.25,10.35,4.42,12.03l1.41,0
					c0.46-0.08,0.92-0.13,1.41-0.13l49.19-0.12l-0.12-51.18c-1.25-6.08-7.1-9.26-12.02-6.44c-8.15,4.68-15.15,8.16-26.37,3.12
					c-9.63-4.32-14.47-18.82-8.1-29.72c7.85-13.44,22.21-11.83,33.84-4.62c4.98,3.09,11.24,0.22,12.54-5.09l-0.07-30.86l-0.05-20.51
					l0-0.72l-52.61,0.13c-4.3-1.9-6.45-7.29-3.89-11.81c4.64-8.18,8.68-16.22,3.7-25.34C465.83,212.76,450.89,208.69,440.02,215.12z
					"/>
			</g>
		</g>
		<g>
			<g>
				<polygon class="st14" points="382.27,277.2 380.1,281.18 379.06,275.42 376.34,274.76 373.12,283.85 376.5,287.81 
					376.47,287.88 386,297.41 395.77,293.65 397.54,282.85 390.09,275.85 				"/>
			</g>
			<g>
				<path class="st4" d="M374.33,276.44c0,0-8.78,8.16-6.13,17.47c2.66,9.31,13.63,11.27,17.2,9.71c3.57-1.56,8.75-6.62,8.75-6.62
					L374.33,276.44z"/>
			</g>
		</g>
		<g>
			<g>
				<polygon class="st14" points="529.86,347.94 523.98,361.55 517.97,359.43 519.9,349.26 516.56,349.56 523.04,338.49 
					529.61,339.86 				"/>
			</g>
			<g>
				<path class="st4" d="M487.06,216.04c-0.57,1.04-1.01,2.23-1.3,3.57c-1.18,5.55,0.41,11.34,3.22,16.23
					c4.45,7.74,11.48,14.13,16.81,21.32c6.1,8.22,12.2,16.44,18.31,24.66l-4.53,59.73l13.18,2.07l19.69-71.4
					c-8.66-10.52-17.16-20.76-25.06-31.74c-7.08-9.84-12.58-21.9-23.82-27.95C497.23,209.1,490.19,210.32,487.06,216.04z"/>
			</g>
		</g>
	</g>
	<g>
		<g>
			<g>
				<g>
					<g id="XMLID_20_">
						<path class="st3" d="M897.24,529.82l1.01,15.83l3.02,38.2l5.6,139.79l0.1,0l0.08-2.02l17.69,0.59l33.09-154.97l15.43-118.73
							c-24.01,9.71-65.9,17.4-84.89,18.7L897.24,529.82z"/>
					</g>
					<g>
						<polygon class="st5" points="925.95,722.25 924.73,722.2 907.04,721.61 906.96,723.64 906.68,730.8 925.24,740.61 
							935.05,731.74 						"/>
					</g>
				</g>
				<g>
					<g id="XMLID_19_">
						<path class="st3" d="M900.09,517.06l-11.64,48.15l-6.25,139.76l-0.1,0l-0.07-2.02l-17.7,0.51l-27.57-148.47l-5.57-87.92
							c19.18,3.16,53.41-1.22,72.39,0.17L900.09,517.06z"/>
					</g>
					<g>
						<polygon class="st5" points="863.11,703.49 864.33,703.46 882.03,702.95 882.1,704.97 882.34,712.14 863.74,721.86 
							853.97,712.95 						"/>
					</g>
				</g>
				<g>
					<g>
						<path class="st5" d="M914.67,157.78c3.22,5,4.99,10.88,5.61,16.82c0.17,1.58,0.38,3.4,1.7,4.26c1.41,0.92,0.36,3.19,1.3,1.79
							s4.14-6.26,4.19-7.95c0.12-3.98-0.13-7.97-0.75-11.9c-0.54-3.42-1.45-6.97-3.83-9.47c-1.41-1.48-3.23-2.47-5.02-3.42
							c-2.6-1.39-5.27-2.78-8.18-3.16c-5.01-0.64-7.94,1.34-3.35,4.6C909.64,151.67,912.46,154.35,914.67,157.78z"/>
					</g>
					<g>
						<g>
							<path class="st14" d="M888.04,227.18c6.85,0.24,13.71,0.48,20.56,0.72c0.67-6.05,0.9-12.16,0.7-18.27
								c5.87-1.39,12.73-3.76,14.37-10.2c0.52-2.03,0.41-4.2,0.29-6.32c-0.47-8.76-0.95-17.52-1.42-26.28
								c-0.16-3.03-0.35-6.15-1.54-8.9c-2.09-4.83-6.82-7.49-11.39-9.08c-11.67-4.04-24.93-3.06-35.02,4.28
								c-2.69,1.95-5.18,4.41-6.6,7.63c-2.19,4.96-1.51,10.88-0.78,16.41c0.67,5.1,1.34,10.21,2.01,15.31
								c0.77,5.87,2.06,12.6,6.75,15.44c2.49,1.51,5.6,1.63,7.79,3.65C887.61,215.12,886.37,221.93,888.04,227.18z"/>
						</g>
					</g>
					<g>
						<path class="st5" d="M925.84,189.51c-0.2-1.62-1.19-6.34-3.4-3.2c-0.58,0.82-0.67,1.93-0.64,2.98
							c0.03,1.04,0.14,2.11-0.12,3.11c-0.6,2.29-2.99,3.46-5.17,3.56c-0.87,0.04-1.76-0.06-2.56-0.45c-0.77-0.39-1.4-1.04-2.02-1.68
							c-1.5-1.55-3-3.1-4.5-4.65c-2.58-2.66-7.28-1.17-10.5-0.54c-3.71,0.72-7.38,2.09-10.28,4.77c-0.29,0.27-0.58,0.55-0.86,0.84
							c-0.7,0.69-1.4,1.37-2.23,1.85c-2.8,1.6-6.47,0.32-8.65-2.23c-1-1.17-1.96-2.7-3.42-2.81c-1.14-0.09-2.18,0.79-2.7,1.9
							c-0.51,1.11-0.59,2.39-0.59,3.64c-0.01,4.54,0.89,9.17,3.07,13.07c4.72,8.45,12.87,9.04,20.98,8.36
							c3.21-0.27,6.41-0.54,9.62-0.81c5.86-0.49,12.05-1.11,16.79-4.87c4.18-3.32,6.45-8.68,7.18-14.2
							C926.2,195.28,926.19,192.37,925.84,189.51z M905.12,203.12c-2.96,2.3-6.36,2.62-9.87,1.77c-1.49-0.36-1.02-2.9,0.47-2.54
							c2.91,0.7,5.6,0.52,8.07-1.39C905.02,199.99,906.35,202.16,905.12,203.12z"/>
					</g>
					<g>
						<path class="st5" d="M924.16,141.98c0.44-2.16,0.72-4.34,0.86-6.54c-1.94,0.83-4.1,1.15-6.19,0.91
							c-0.08-1.26-0.16-2.52-0.25-3.78c-0.07-1.05-14.05-0.95-15.19-0.98c-10.65-0.25-20.4-0.51-29.63,5.84
							c-7.88,5.43-12.68,13.12-13.35,22.8c-0.64,9.25,3.05,21.05,8.74,28.36c-0.18-2.44-1.92-8.12-1.49-10.48
							c0.2-2.35,0.86-4.64,1.82-6.77c1.92-4.26,5.08-7.95,8.83-10.66c5.97-4.33,13.07-6.85,20.22-8.31
							c6.55-1.33,14.55-2.67,21.19-1.28c3.19,0.67,3.76,1.44,5.46-1.9c0.3-0.59,2.55-7.38,2.29-7.37
							C926.36,141.88,925.26,141.93,924.16,141.98z"/>
					</g>
				</g>
				<g>
					<path class="st4" d="M869.31,222.99l53.29,2.78l32.7,13.51l27.79,240.1c0,0-141.31,4.47-165.8-1.71l30.06-236.86L869.31,222.99
						z"/>
				</g>
			</g>
			<g>
				<path class="st17" d="M912.4,273.86c-4.3-1.91-6.43-7.31-3.86-11.82c4.66-8.16,8.72-16.2,3.76-25.33
					c-6.03-11.1-20.97-15.21-31.84-8.81c-13.42,7.9-11.76,22.25-4.52,33.86c2.82,4.52,0.72,10.13-3.68,12.09h-53.28v0.72v18.94
					v32.99c-1.69,4.82-7.59,7.28-12.33,4.33c-11.61-7.23-25.97-8.88-33.85,4.54c-6.4,10.88-2.28,25.81,8.82,31.84
					c9.13,4.95,17.16,0.89,25.33-3.78c4.7-2.68,10.35-0.25,12.03,4.41v52.04h49.85c6.58,0,10.59,7.23,7.11,12.82
					c-7.24,11.61-8.89,25.96,4.52,33.86c10.88,6.4,25.81,2.29,31.84-8.81c4.96-9.12,0.9-17.16-3.76-25.33
					c-3.19-5.59,0.84-12.54,7.28-12.54h49.19v-51.18c-1.36-5.1-7.33-7.9-12.25-5.09c-8.16,4.66-16.2,8.73-25.33,3.78
					c-11.1-6.03-15.22-20.96-8.82-31.84c7.89-13.42,22.24-11.78,33.85-4.54c4.97,3.1,11.24,0.24,12.55-5.06V295.1v-20.51v-0.72
					H912.4z"/>
			</g>
			<g>
				<g>
					<polygon class="st14" points="965.12,404.14 957.74,413.62 949.46,412.83 951.42,403.43 947.24,404.23 945.93,401.84 
						957.47,390.16 965.24,393.54 					"/>
				</g>
				<g>
					<path class="st4" d="M941.97,243.36c-0.82,1.06-1.53,2.32-2.1,3.77c-2.36,6.05-1.73,12.96,0.39,19.11
						c3.36,9.74,9.81,18.48,14.25,27.77c5.08,10.63,10.16,21.25,15.24,31.88l-16.44,66.86l13.99,5.15l35.24-76.9
						c-7.43-13.78-14.74-27.21-21.25-41.36c-5.84-12.68-9.52-27.53-20.62-36.78C954.4,237.64,946.49,237.53,941.97,243.36z"/>
				</g>
			</g>
		</g>
		<g>
			<g>
				<polygon class="st14" points="820.71,309.25 816.66,311.29 819.09,305.97 817.23,303.87 809.4,309.51 809.92,314.69 
					809.85,314.72 812.25,327.99 822.42,330.46 830.03,322.61 827.9,312.61 				"/>
			</g>
			<g>
				<path class="st4" d="M814.61,304.11c0,0-11.87,1.7-15,10.86c-3.12,9.16,4.77,17.03,8.59,17.78c3.82,0.75,10.96-0.45,10.96-0.45
					L814.61,304.11z"/>
			</g>
		</g>
	</g>
</g>
</svg>
