<svg width="631" height="512" viewBox="0 0 631 512" fill="none" xmlns="http://www.w3.org/2000/svg">
<g clip-path="url(#clip0)">
<path d="M591.089 419.094H361.616C361.616 390.057 334.028 366.505 300 366.505C265.96 366.505 238.372 390.057 238.372 419.094H8.91089C8.91089 281.908 139.235 170.698 300 170.698C460.765 170.698 591.089 281.908 591.089 419.094Z" fill="#FA496E"/>
<path d="M399.871 419.094H361.614C361.614 390.057 334.025 366.505 299.998 366.505C265.958 366.505 238.37 390.057 238.37 419.094H200.125C200.125 372.031 244.846 333.879 299.998 333.879C355.15 333.879 399.871 372.03 399.871 419.094Z" fill="#A67EFF"/>
<path d="M438.104 419.094H399.871C399.871 372.031 355.15 333.879 299.998 333.879C244.846 333.879 200.125 372.031 200.125 419.094H161.891C161.891 354.004 223.72 301.243 299.998 301.243C376.275 301.243 438.104 354.004 438.104 419.094Z" fill="#52DBFF"/>
<path d="M476.35 419.094H438.104C438.104 354.004 376.275 301.243 299.998 301.243C223.72 301.243 161.891 354.004 161.891 419.094H123.646C123.646 335.978 202.596 268.607 299.998 268.607C397.399 268.607 476.35 335.977 476.35 419.094Z" fill="#00DCAB"/>
<path d="M552.841 419.094H514.596C514.596 317.961 418.525 235.97 299.998 235.97C181.482 235.97 85.3992 317.961 85.3992 419.094H47.1539C47.1539 299.935 160.358 203.334 299.998 203.334C439.637 203.334 552.841 299.935 552.841 419.094Z" fill="#FF8522"/>
<path d="M514.596 419.094H476.351C476.351 335.978 397.4 268.607 299.999 268.607C202.597 268.607 123.647 335.978 123.647 419.094H85.3992C85.3992 317.961 181.482 235.97 299.998 235.97C418.525 235.97 514.596 317.961 514.596 419.094Z" fill="#FFDD00"/>
<path d="M591.089 426.699C586.167 426.699 582.178 423.294 582.178 419.095C582.178 354.778 552.827 294.309 499.529 248.829C446.234 203.349 375.373 178.303 299.999 178.303C224.625 178.303 153.765 203.349 100.468 248.829C47.1727 294.308 17.8219 354.776 17.8219 419.095C17.8219 423.294 13.8328 426.699 8.91094 426.699C3.98906 426.699 0 423.294 0 419.095C0 350.715 31.2059 286.427 87.8672 238.076C144.53 189.724 219.867 163.095 300 163.095C380.133 163.095 455.47 189.724 512.132 238.076C568.794 286.427 600 350.714 600 419.095C600 423.294 596.011 426.699 591.089 426.699Z" fill="black"/>
<path d="M361.615 426.699C356.693 426.699 352.704 423.294 352.704 419.095C352.704 394.29 329.061 374.11 300 374.11C270.932 374.11 247.283 394.29 247.283 419.095C247.283 423.294 243.294 426.699 238.372 426.699C233.45 426.699 229.461 423.294 229.461 419.095C229.461 385.904 261.105 358.902 300 358.902C338.887 358.902 370.526 385.904 370.526 419.095C370.526 423.294 366.537 426.699 361.615 426.699Z" fill="black"/>
<path d="M552.841 426.699C547.92 426.699 543.93 423.294 543.93 419.095C543.93 304.317 434.502 210.937 299.996 210.937C165.491 210.937 56.0625 304.317 56.0625 419.095C56.0625 423.294 52.0734 426.699 47.1515 426.699C42.2297 426.699 38.2406 423.294 38.2406 419.095C38.2406 359.431 65.468 303.34 114.906 261.152C164.344 218.964 230.079 195.73 299.995 195.73C369.912 195.73 435.646 218.965 485.084 261.152C534.521 303.339 561.749 359.433 561.749 419.095C561.752 423.295 557.762 426.699 552.841 426.699Z" fill="black"/>
<path d="M85.3946 426.699C80.4727 426.699 76.4836 423.294 76.4836 419.095C76.4836 313.926 176.752 228.364 299.997 228.364C342.929 228.364 384.631 238.779 420.597 258.485C424.738 260.754 425.939 265.457 423.281 268.992C420.622 272.525 415.109 273.552 410.968 271.282C377.881 253.154 339.507 243.572 299.997 243.572C186.579 243.572 94.3055 322.312 94.3055 419.095C94.3055 423.295 90.3176 426.699 85.3946 426.699Z" fill="black"/>
<path d="M514.597 426.699C509.675 426.699 505.686 423.294 505.686 419.095C505.686 366.763 478.609 317.541 431.398 284.051C427.612 281.366 427.096 276.573 430.24 273.343C433.387 270.113 439.008 269.673 442.788 272.357C494.086 308.745 523.507 362.23 523.507 419.096C523.508 423.295 519.519 426.699 514.597 426.699Z" fill="black"/>
<path d="M476.352 426.699C471.43 426.699 467.441 423.294 467.441 419.095C467.441 340.307 392.326 276.207 299.995 276.207C207.664 276.207 132.548 340.306 132.548 419.095C132.548 423.294 128.559 426.699 123.637 426.699C118.716 426.699 114.727 423.294 114.727 419.095C114.727 331.921 197.837 261 299.994 261C402.15 261 485.261 331.922 485.261 419.095C485.263 423.295 481.274 426.699 476.352 426.699Z" fill="black"/>
<path d="M161.884 426.699C156.962 426.699 152.973 423.294 152.973 419.095C152.973 399.055 158.347 379.902 168.946 362.168C171.183 358.428 176.55 356.942 180.933 358.85C185.317 360.758 187.058 365.338 184.822 369.079C175.513 384.653 170.793 401.481 170.793 419.097C170.795 423.295 166.806 426.699 161.884 426.699Z" fill="black"/>
<path d="M438.108 426.699C433.186 426.699 429.197 423.294 429.197 419.095C429.197 358.302 371.238 308.843 299.996 308.843C258.893 308.843 221.17 324.967 196.503 353.082C193.553 356.444 187.969 357.128 184.029 354.611C180.09 352.095 179.287 347.328 182.236 343.966C210.302 311.98 253.225 293.634 299.996 293.634C381.064 293.634 447.019 349.915 447.019 419.094C447.019 423.295 443.031 426.699 438.108 426.699Z" fill="black"/>
<path d="M399.865 426.699C394.943 426.699 390.954 423.294 390.954 419.095C390.954 376.297 350.15 341.478 299.997 341.478C249.841 341.478 209.038 376.297 209.038 419.095C209.038 423.294 205.049 426.699 200.127 426.699C195.205 426.699 191.216 423.294 191.216 419.095C191.216 367.911 240.014 326.27 299.997 326.27C359.979 326.27 408.776 367.911 408.776 419.095C408.776 423.295 404.787 426.699 399.865 426.699Z" fill="black"/>
<path d="M116.794 159.422C120.823 164.759 123.357 169.962 124.395 175.032C125.414 180.076 124.904 184.635 122.866 188.708C120.828 192.781 117.395 196.136 112.569 198.773C107.852 201.35 102.879 202.588 97.6503 202.486C92.4026 202.359 87.2955 200.904 82.329 198.122C77.371 195.3 72.9253 191.335 68.9919 186.227L66.0264 182.299C62.0725 177.062 59.5808 171.888 58.5514 166.779C57.5219 161.669 58.0306 157.058 60.0775 152.945C62.133 148.793 65.5192 145.427 70.236 142.85C75.0351 140.228 80.0585 138.98 85.3062 139.108C90.5625 139.195 95.6936 140.707 100.699 143.643C105.686 146.555 110.185 150.667 114.196 155.98L116.794 159.422ZM106.282 160.198C101.406 153.738 96.2423 149.566 90.792 147.683C85.3228 145.774 80.0242 146.221 74.896 149.023C69.905 151.75 67.2783 155.634 67.0159 160.674C66.7622 165.674 68.9101 171.265 73.4596 177.445L76.4815 181.448C81.2074 187.708 86.3657 191.848 91.9564 193.866C97.5557 195.844 102.892 195.447 107.965 192.675C113.066 189.888 115.744 186.047 116 181.151C116.236 176.231 114.014 170.593 109.332 164.238L106.282 160.198Z" fill="white"/>
<path d="M165.612 147.157C157.361 148.25 150.783 148.101 145.879 146.709C140.987 145.278 137.323 142.523 134.887 138.445C132.131 133.831 131.828 129.19 133.979 124.522C136.142 119.816 140.391 116.128 146.726 113.458C151.046 111.637 155.355 110.795 159.654 110.931C163.981 111.055 167.884 112.097 171.361 114.056C174.867 116.004 177.59 118.601 179.529 121.847L171.192 125.361C169.077 121.819 166.209 119.552 162.588 118.56C158.951 117.54 154.93 117.959 150.524 119.816C146.435 121.539 143.743 123.732 142.449 126.393C141.168 129.015 141.416 131.815 143.195 134.793C144.621 137.181 146.911 138.751 150.064 139.504C153.23 140.218 157.828 140.161 163.858 139.333C169.916 138.492 174.911 138.284 178.841 138.71C182.785 139.096 186.119 140.092 188.844 141.697C191.598 143.291 193.865 145.576 195.643 148.554C198.48 153.303 198.768 157.95 196.509 162.495C194.234 167.014 189.77 170.675 183.118 173.479C178.798 175.299 174.31 176.234 169.653 176.282C164.98 176.304 160.82 175.404 157.173 173.583C153.555 171.75 150.728 169.13 148.693 165.722L157.029 162.209C159.145 165.75 162.216 167.965 166.243 168.854C170.283 169.703 174.65 169.139 179.344 167.161C183.721 165.316 186.579 163.07 187.918 160.424C189.257 157.777 189.069 155.019 187.355 152.148C185.64 149.277 183.238 147.519 180.149 146.873C177.044 146.201 172.198 146.295 165.612 147.157Z" fill="white"/>
<path d="M37.0321 224.413C30.2665 229.25 24.3945 232.203 19.4159 233.272C14.4304 234.3 9.90783 233.581 5.8483 231.114C1.25461 228.324 -1.18744 224.359 -1.47786 219.219C-1.77527 214.04 0.244561 208.783 4.58164 203.449C7.53874 199.811 10.9451 197.045 14.8006 195.149C18.6759 193.229 22.6065 192.321 26.5924 192.424C30.5979 192.503 34.2165 193.524 37.4481 195.487L31.7409 202.507C28.2155 200.365 24.6233 199.704 20.9643 200.524C17.2785 201.327 13.9275 203.584 10.9113 207.294C8.11192 210.737 6.76495 213.94 6.8704 216.902C6.96886 219.823 8.50035 222.184 11.4649 223.985C13.8418 225.43 16.5975 225.745 19.7319 224.933C22.8594 224.08 26.8882 221.873 31.8185 218.311C36.7686 214.726 41.0769 212.2 44.7436 210.732C48.4033 209.225 51.8112 208.542 54.9672 208.685C58.1429 208.803 61.213 209.762 64.1775 211.563C68.9047 214.435 71.3369 218.412 71.4741 223.495C71.5846 228.561 69.3628 233.894 64.8089 239.495C61.8518 243.132 58.3307 246.065 54.2455 248.292C50.1337 250.503 46.0425 251.658 41.9721 251.757C37.9214 251.832 34.2001 250.839 30.8082 248.778L36.5154 241.758C40.0408 243.9 43.7879 244.42 47.7566 243.317C51.7184 242.174 55.3059 239.626 58.5193 235.674C61.5158 231.989 62.9846 228.661 62.9255 225.691C62.8665 222.721 61.4081 220.368 58.5504 218.632C55.6927 216.895 52.7501 216.466 49.7225 217.343C46.6682 218.205 42.4381 220.561 37.0321 224.413Z" fill="white"/>
<path d="M261.389 148.547L293.73 148.122L294.829 155.398L253.442 155.942L243.253 88.4571L252.299 88.3382L261.389 148.547Z" fill="white"/>
<path d="M371.257 147.704C369.439 151.01 366.576 153.509 362.668 155.201C358.785 156.862 354.095 157.729 348.595 157.801C343.033 157.874 337.902 156.657 333.203 154.149C328.499 151.61 324.601 147.977 321.507 143.25C318.445 138.522 316.41 133.022 315.4 126.75L314.511 120.864C312.977 110.698 314.177 102.787 318.114 97.1311C322.081 91.475 328.409 88.5899 337.095 88.4757C344.22 88.3821 350.227 90.1144 355.116 93.6726C360 97.1999 363.426 102.263 365.393 108.863L356.394 108.982C353.358 100.074 347.31 95.6793 338.248 95.7984C332.217 95.8776 327.957 98.0389 325.466 102.282C323.003 106.495 322.355 112.571 323.522 120.513L324.355 126.029C325.498 133.599 328.158 139.602 332.334 144.036C336.505 148.44 341.575 150.602 347.543 150.524C350.918 150.479 353.815 150.07 356.234 149.295C358.653 148.52 360.558 147.241 361.948 145.458L359.66 130.302L343.864 130.509L342.773 123.279L367.52 122.954L371.257 147.704Z" fill="white"/>
<path d="M397.483 167.448L396.514 99.2051L418.66 101.932C426.01 102.837 431.553 105.048 435.287 108.564C439.053 112.085 440.978 116.845 441.063 122.844C441.108 126.031 440.249 128.748 438.485 130.995C436.721 133.211 434.297 134.8 431.215 135.761C434.889 137.243 437.802 139.567 439.952 142.733C442.133 145.871 443.252 149.44 443.309 153.439C443.396 159.564 441.495 164.133 437.605 167.148C433.716 170.162 428.173 171.227 420.978 170.341L397.483 167.448ZM405.963 136.629L406.311 161.189L421.059 163.005C425.215 163.517 428.472 162.842 430.83 160.98C433.218 159.09 434.385 156.24 434.331 152.427C434.214 144.21 429.721 139.555 420.85 138.462L405.963 136.629ZM405.86 129.411L419.352 131.072C423.26 131.554 426.363 130.953 428.661 129.271C430.991 127.593 432.131 125.066 432.083 121.692C432.03 117.942 430.906 115.09 428.711 113.135C426.515 111.149 423.2 109.883 418.765 109.337L405.552 107.71L405.86 129.411Z" fill="white"/>
</g>
<path d="M511.971 150.455L492.221 140.906L473.448 198.781L465.387 194.883L484.161 137.008L464.453 127.479L466.739 120.434L514.257 143.41L511.971 150.455Z" fill="white"/>
<defs>
<clipPath id="clip0">
<rect width="600" height="512" fill="white"/>
</clipPath>
</defs>
</svg>
