<?xml version="1.0"?>
<svg xmlns="http://www.w3.org/2000/svg" xmlns:xlink="http://www.w3.org/1999/xlink" version="1.1" id="Layer_1" x="0px" y="0px" viewBox="0 0 512.001 512.001" style="enable-background:new 0 0 512.001 512.001;" xml:space="preserve" width="512px" height="512px" class=""><g><g>
	<g>
		<path d="M324.942,230.652l-49.322,10.56c-17.781,3.807-35.334-4.339-44.316-19.015c-3.623,3.353-7.831,5.698-12.275,7.039    l0.01,258.769c0,13.251,10.742,23.995,23.995,23.995c13.252,0,23.995-10.742,23.995-23.995V296.213h10.361v191.792    c0,13.251,10.742,23.995,23.995,23.995s23.995-10.742,23.995-23.995C325.377,480.43,324.942,238.232,324.942,230.652z" data-original="#000000" class="active-path" data-old_color="#2C2525" fill="#2B2424"/>
	</g>
</g><g>
	<g>
		<path d="M458.1,52.695c-6.19-8.996-18.43-11.332-27.498-5.327c-0.899,11.14-5.035,22.17-12.676,31.704    c9.685-0.735,19.174,1.695,27.18,6.838l7.857-5.407C462.06,74.242,464.36,61.793,458.1,52.695z" data-original="#000000" class="active-path" data-old_color="#2C2525" fill="#2B2424"/>
	</g>
</g><g>
	<g>
		<path d="M343.69,93.278l-34.742,9.599H298.85c9.555,11.38,12.059,26.599,7.603,39.991c-0.811,2.436-1.847,4.81-3.117,7.09    c9.599-2.055,16.513-3.536,24.07-5.154c-0.098-0.578-0.857-5.061-0.963-5.686c-1.969-11.616,0.704-23.305,7.527-32.911    c3.332-4.692,7.463-8.606,12.166-11.619C345.309,94.17,344.494,93.734,343.69,93.278z" data-original="#000000" class="active-path" data-old_color="#2C2525" fill="#2B2424"/>
	</g>
</g><g>
	<g>
		<path d="M212.492,102.877c3.464,4.006,6.19,8.623,8.041,13.615l14.051-13.615H212.492z" data-original="#000000" class="active-path" data-old_color="#2C2525" fill="#2B2424"/>
	</g>
</g><g>
	<g>
		<path d="M50.006,181.318c-10.551,3.261-16.461,14.457-13.2,25.008c2.653,8.586,10.559,14.099,19.098,14.098    c3.671,0,5.668-0.822,11.153-2.517l7.485-44.17L50.006,181.318z" data-original="#000000" class="active-path" data-old_color="#2C2525" fill="#2B2424"/>
	</g>
</g><g>
	<g>
		<circle cx="177.802" cy="42.573" r="42.573" data-original="#000000" class="active-path" data-old_color="#2C2525" fill="#2B2424"/>
	</g>
</g><g>
	<g>
		<path d="M282.549,114.488c-8.381-8.649-22.189-8.869-30.839-0.486l-43.742,42.383l-42.755-31.701l33.544,12.908l8.708-8.437    c-1.141-12.528-10.562-23.219-23.55-25.419l-51.299-8.694c-15.469-2.621-30.139,7.794-32.762,23.266    c-1.397,8.241-26.3,156.587-26.3,156.587c-0.032,12.699-0.516,200.458-0.546,212.479c-0.036,13.567,10.935,24.593,24.502,24.628    c0.022,0,0.042,0,0.064,0c13.536,0,24.529-10.957,24.563-24.502c0.013-5.345,0.51-198.662,0.525-204.283l9.983,1.692    c0.001,8.932,0.014,197.231,0.016,202.529c0.001,13.567,10.999,24.564,24.566,24.563c13.567-0.001,24.564-10.999,24.563-24.566    c-0.001-8.951-0.014-183.631-0.016-201.012l10.384-61.275l-52.924-65.426l57.624,42.728c3.878,2.876,8.44,4.291,12.984,4.291    c5.504,0,10.98-2.076,15.182-6.146l0.145-0.141c-0.032-19.279,13.376-36.621,32.983-40.819l11.74-2.513l12.17-11.792    C290.713,136.945,290.931,123.138,282.549,114.488z" data-original="#000000" class="active-path" data-old_color="#2C2525" fill="#2B2424"/>
	</g>
</g><g>
	<g>
		<circle cx="272.202" cy="44.314" r="41.439" data-original="#000000" class="active-path" data-old_color="#2C2525" fill="#2B2424"/>
	</g>
</g><g>
	<g>
		<path d="M414.484,35.467c-3.928-23.178-25.903-38.789-49.086-34.861c-23.182,3.928-38.789,25.905-34.861,49.086    c3.927,23.177,25.903,38.789,49.086,34.861C402.805,80.625,418.412,58.647,414.484,35.467z" data-original="#000000" class="active-path" data-old_color="#2C2525" fill="#2B2424"/>
	</g>
</g><g>
	<g>
		<path d="M475.547,274.893c0,0-13.373-80.299-26.301-156.589c-2.621-15.471-17.291-25.885-32.761-23.264l-51.299,8.694    c-15.471,2.621-25.889,17.29-23.266,32.762l0.69,4.072l41.278-15.884l-53.826,39.911l-67.229,14.395    c-11.566,2.477-19.489,13.581-17.423,25.227c2.17,12.224,14.011,20.111,26.043,17.533l72.365-15.495    c3.047-0.652,5.92-1.951,8.423-3.807l57.624-42.727l-53.166,63.997l10.627,62.704c-0.001,15.765-0.014,191.91-0.016,201.012    C367.309,501.001,378.306,512,391.873,512h0.002c13.566,0,24.564-10.997,24.564-24.563c0-6.554,0.014-194.617,0.016-202.529    l9.983-1.692c0.014,5.622,0.512,198.94,0.525,204.283c0.034,13.546,11.026,24.502,24.563,24.502c0.021,0,0.043,0,0.065,0    c13.567-0.034,24.537-11.062,24.502-24.628C476.063,475.352,475.579,287.592,475.547,274.893z" data-original="#000000" class="active-path" data-old_color="#2C2525" fill="#2B2424"/>
	</g>
</g></g> </svg>
