<svg height="512pt" viewBox="0 -43 512.00114 512" width="512pt" xmlns="http://www.w3.org/2000/svg"><g fill="#ffd5b3"><path d="m236.175781 166.226562 19.820313 19.609376h.003906v-76.058594c-1.542969 0-3.089844-.582032-4.273438-1.75l-26.046874-25.765625c-5.566407 2.601562-9.453126 8.246093-9.453126 14.769531v57.457031c7.457032 2.167969 14.296876 6.152344 19.949219 11.738281zm0 0"/><path d="m255.996094 313.558594c-2.425782 0-4.859375-.914063-6.71875-2.753906l-79.640625-78.769532c-13.664063-13.519531-17.140625-33.351562-10.441407-50.09375l.003907-106.945312c-.003907-8.972656-7.339844-16.308594-16.308594-16.3125l-7.164063.003906c-8.96875-.003906-16.304687 7.335938-16.304687 16.308594v128.414062h-8.628906v-113.296875c0-8.96875-7.335938-16.304687-16.300781-16.304687h-7.164063c-8.972656-.003906-16.304687 7.335937-16.304687 16.308594v147.691406l-19.007813-19.007813c-10.1875-10.1875-26.707031-10.1875-36.894531 0-10.1875 10.191407-10.1875 26.710938 0 36.898438l55.898437 55.902343v22.238282c.003907 8.96875 7.339844 16.304687 16.308594 16.304687h20.964844v61.414063c0 3.691406 3.019531 6.714844 6.714843 6.714844h102.050782c3.691406 0 6.710937-3.023438 6.710937-6.714844v-61.414063h15.921875c8.972656 0 16.308594-7.335937 16.308594-16.308593v-20.277344s0 0-.003906 0zm0 0"/><path d="m169.640625 166.226562c8.882813-8.785156 20.695313-13.628906 33.269531-13.628906 1.574219 0 3.140625.078125 4.6875.230469v-77.835937c0-8.972657-7.339844-16.308594-16.304687-16.308594h-7.164063c-8.964844 0-16.304687 7.339844-16.304687 16.3125v93.136718c.585937-.648437 1.1875-1.285156 1.816406-1.90625zm0 0"/><path d="m309.089844 152.597656c12.566406 0 24.378906 4.84375 33.269531 13.628906.628906.621094 1.230469 1.261719 1.816406 1.90625v-93.140624c0-8.96875-7.339843-16.308594-16.304687-16.308594h-7.164063c-8.964843 0-16.304687 7.335937-16.304687 16.304687v77.835938c1.546875-.148438 3.113281-.226563 4.6875-.226563zm0 0"/><path d="m496.875 218.800781c-10.1875-10.1875-26.703125-10.1875-36.894531 0l-19.003907 19.007813v-147.691406c0-8.972657-7.335937-16.3125-16.308593-16.308594h-7.160157c-8.96875 0-16.304687 7.335937-16.304687 16.304687v113.296875h-8.628906l.003906-128.414062c0-8.972656-7.335937-16.3125-16.308594-16.308594l-7.160156-.003906c-8.972656.003906-16.308594 7.339844-16.308594 16.3125v106.949218c6.699219 16.738282 3.226563 36.570313-10.441406 50.089844l-79.640625 78.769532c-1.855469 1.839843-4.289062 2.753906-6.71875 2.753906v20.277344c-.003906 8.972656 7.332031 16.308593 16.304688 16.308593h15.921874v61.414063c0 3.691406 3.019532 6.714844 6.714844 6.714844h102.050782c3.691406 0 6.710937-3.023438 6.710937-6.714844v-61.414063h20.96875c8.96875 0 16.304687-7.335937 16.304687-16.304687v-22.238282l55.902344-55.902343c10.183594-10.1875 10.183594-26.707031-.003906-36.898438zm0 0"/><path d="m275.824219 166.226562c5.652343-5.585937 12.492187-9.570312 19.949219-11.738281v-57.457031c0-6.523438-3.886719-12.167969-9.453126-14.769531l-26.050781 25.765625c-1.179687 1.167968-2.726562 1.75-4.269531 1.753906v76.054688zm0 0"/></g><path d="m255.996094 313.558594c-2.425782 0-4.859375-.914063-6.71875-2.753906l-79.640625-78.769532c-18.339844-18.140625-18.339844-47.660156 0-65.808594 8.886719-8.785156 20.699219-13.628906 33.269531-13.628906 12.566406 0 24.378906 4.84375 33.269531 13.628906l19.820313 19.609376 19.828125-19.609376c8.890625-8.785156 20.699219-13.628906 33.265625-13.628906s24.378906 4.84375 33.269531 13.628906c18.34375 18.148438 18.34375 47.667969 0 65.808594l-79.640625 78.769532c-1.859375 1.839843-4.292969 2.753906-6.722656 2.753906zm0 0" fill="#ef5050"/><path d="m256 109.777344c-1.542969 0-3.089844-.582032-4.273438-1.75l-50.605468-50.054688c-11.652344-11.527344-11.652344-30.285156 0-41.8125 5.648437-5.585937 13.15625-8.660156 21.144531-8.660156 7.980469 0 15.488281 3.074219 21.136719 8.660156l12.597656 12.460938 12.597656-12.460938c5.652344-5.585937 13.15625-8.660156 21.140625-8.660156s15.492188 3.074219 21.140625 8.660156c11.65625 11.527344 11.65625 30.285156 0 41.8125l-50.609375 50.054688c-1.179687 1.167968-2.726562 1.75-4.269531 1.75zm0 0" fill="#fb8276"/><path d="m223.773438 394.265625c-4.144532 0-7.5 3.355469-7.5 7.5v9.003906h-100.476563v-60.625c0-4.140625-3.359375-7.5-7.5-7.5h-20.964844c-4.855469 0-8.808593-3.949219-8.808593-8.804687v-22.238282c0-1.988281-.789063-3.894531-2.195313-5.304687l-55.902344-55.898437c-7.242187-7.25-7.242187-19.042969.003907-26.292969 3.511718-3.511719 8.175781-5.445313 13.140624-5.445313 4.964844 0 9.632813 1.9375 13.144532 5.445313l19.003906 19.003906c2.148438 2.148437 5.371094 2.789063 8.175781 1.628906 2.804688-1.160156 4.628907-3.898437 4.628907-6.929687v-30.054688c0-4.144531-3.355469-7.503906-7.5-7.503906-4.140626 0-7.5 3.359375-7.5 7.503906v11.945313l-6.199219-6.199219c-6.34375-6.347656-14.78125-9.839844-23.753907-9.839844-8.972656 0-17.40625 3.492188-23.75 9.839844-13.09375 13.09375-13.09375 34.40625-.003906 47.503906l53.707032 53.703125v19.132813c0 13.125 10.679687 23.804687 23.804687 23.808594h13.464844v53.910156c0 7.835937 6.378906 14.214844 14.214843 14.214844h102.050782c7.839844 0 14.214844-6.378907 14.214844-14.214844v-9.792969c0-4.144531-3.359376-7.5-7.5-7.5zm0 0"/><path d="m502.179688 213.5c-6.34375-6.347656-14.777344-9.839844-23.75-9.839844-8.972657 0-17.40625 3.492188-23.753907 9.839844l-6.199219 6.199219v-52.949219c0-4.144531-3.355468-7.5-7.5-7.5-4.140624 0-7.5 3.355469-7.5 7.5v71.058594c0 3.03125 1.828126 5.769531 4.628907 6.929687 2.804687 1.164063 6.03125.519531 8.175781-1.628906l19.003906-19.003906c3.511719-3.511719 8.179688-5.445313 13.144532-5.445313 4.964843 0 9.632812 1.933594 13.140624 5.445313 7.25 7.25 7.25 19.042969.003907 26.292969l-55.898438 55.902343c-1.40625 1.40625-2.199219 3.3125-2.199219 5.300781v22.234376c0 4.855468-3.949218 8.808593-8.804687 8.808593h-20.964844c-4.144531 0-7.5 3.359375-7.5 7.5v60.625h-100.480469v-60.625c0-4.144531-3.355468-7.5-7.5-7.5h-15.921874c-2.335938 0-4.542969-.921875-6.214844-2.59375-1.667969-1.671875-2.589844-3.878906-2.589844-6.214843v-14.519532c1.640625-.804687 3.160156-1.859375 4.492188-3.179687l79.640624-78.769531c10.308594-10.191407 15.984376-23.769532 15.984376-38.230469 0-6.464844-1.140626-12.75-3.3125-18.636719l-.003907-105.503906c0-4.859375 3.953125-8.808594 8.804688-8.8125l7.167969.003906h.003906c2.332031 0 4.535156.917969 6.207031 2.589844s2.59375 3.878906 2.59375 6.214844l-.003906 128.417968c0 1.988282.789062 3.898438 2.199219 5.304688 1.40625 1.40625 3.3125 2.195312 5.304687 2.195312l8.628906-.003906c4.140625 0 7.5-3.355469 7.5-7.5v-113.292969c0-4.855469 3.949219-8.804687 8.800781-8.804687h7.164063c2.332031 0 4.539063.921875 6.210937 2.59375 1.671876 1.671875 2.59375 3.878906 2.59375 6.214844v39.628906c0 4.144531 3.359376 7.5 7.5 7.5 4.144532 0 7.5-3.355469 7.5-7.5v-39.628906c0-6.34375-2.480468-12.316407-6.984374-16.824219-4.507813-4.503907-10.480469-6.984375-16.820313-6.984375h-7.164063c-6.886718 0-13.101562 2.941406-17.449218 7.632812-.261719-5.945312-2.710938-11.511718-6.964844-15.765625-4.503906-4.503906-10.476562-6.984375-16.808594-6.984375-.003906 0-.007812 0-.007812 0l-7.171875-.003906c-8.796875.003906-16.492188 4.800781-20.613281 11.921875-4.121094-7.121094-11.820313-11.921875-20.621094-11.921875h-3.542969c1.828125-4.417969 2.789063-9.191406 2.792969-14.117188 0-9.925781-3.894532-19.246093-10.972656-26.242187-7.058594-6.980469-16.4375-10.828125-26.410157-10.828125-9.96875 0-19.347656 3.847656-26.414062 10.828125l-7.324219 7.242187-7.320312-7.242187c-7.0625-6.980469-16.441407-10.828125-26.414063-10.828125-9.976563 0-19.355469 3.847656-26.414063 10.828125-7.074218 6.996094-10.96875 16.316406-10.96875 26.242187 0 4.925782.960938 9.699219 2.792969 14.117188h-3.542969c-8.800781 0-16.5 4.800781-20.621093 11.921875-4.121094-7.121094-11.820313-11.917969-20.621094-11.921875l-7.160156.003906s-.003907 0-.007813 0c-6.339844 0-12.308594 2.480469-16.8125 6.984375-4.253906 4.253907-6.703125 9.816407-6.964844 15.765625-4.347656-4.691406-10.5625-7.632812-17.449218-7.632812h-7.164063c-6.34375 0-12.316406 2.480468-16.820312 6.988281-4.503907 4.503906-6.984375 10.476563-6.984375 16.820313v81.632812c0 4.144531 3.355468 7.5 7.5 7.5 4.140625 0 7.5-3.355469 7.5-7.5v-81.632812c0-2.335938.921875-4.542969 2.59375-6.214844s3.875-2.59375 6.210937-2.59375h7.164063c4.851562 0 8.800781 3.949218 8.800781 8.804687v113.296875c0 4.140625 3.359375 7.5 7.5 7.5l8.628906.003906c1.988281 0 3.898438-.792968 5.304688-2.199218s2.199219-3.3125 2.199219-5.304688l-.003907-128.414062c0-2.335938.921875-4.542969 2.59375-6.214844s3.875-2.59375 6.210938-2.59375h7.164062c4.855469 0 8.808594 3.953125 8.808594 8.808594l-.003906 105.507812c-2.171875 5.886719-3.3125 12.171875-3.3125 18.632813 0 14.460937 5.679687 28.039062 15.984375 38.230469l79.636718 78.773437c1.335938 1.316406 2.855469 2.375 4.496094 3.175781v14.523438c0 2.335937-.921875 4.542968-2.589844 6.210937-1.671874 1.671875-3.878906 2.59375-6.214843 2.59375h-15.921875c-4.144532 0-7.5 3.355469-7.5 7.5v15.617188c0 4.144531 3.355468 7.5 7.5 7.5 4.144531 0 7.5-3.355469 7.5-7.5v-8.117188h8.417968.007813c6.101563 0 11.859375-2.304687 16.300781-6.492187 4.441406 4.1875 10.199219 6.492187 16.300782 6.492187h.007812 8.417969v53.914063c0 7.839844 6.378906 14.214844 14.214843 14.214844h102.050782c7.839844 0 14.214844-6.375 14.214844-14.214844v-53.910156h13.464843c13.125-.003907 23.804688-10.683594 23.808594-23.808594v-19.128906l53.703125-53.707032c13.085938-13.097656 13.085938-34.410156-.007812-47.503906zm-181.472657-147.3125h7.164063c4.851562 0 8.800781 3.949219 8.800781 8.808594v77.503906c-7.484375-4.359375-15.933594-6.886719-24.769531-7.328125v-70.179687c0-2.335938.921875-4.542969 2.59375-6.214844s3.875-2.589844 6.210937-2.589844zm-96.980469 30.84375c0-1.707031.496094-3.339844 1.414063-4.753906l21.316406 21.085937c.632813.625 1.316407 1.179688 2.042969 1.660157v52.847656l-7.050781-6.976563c-5.164063-5.105469-11.179688-9.058593-17.726563-11.734375v-52.128906zm39.777344 17.992188c.722656-.484376 1.40625-1.039063 2.039063-1.664063l21.316406-21.082031c.917969 1.410156 1.414063 3.046875 1.414063 4.753906v52.128906c-6.546876 2.675782-12.558594 6.628906-17.726563 11.734375l-7.046875 6.972657zm-57.105468-93.53125c4.230468-4.1875 9.867187-6.492188 15.867187-6.492188 5.996094 0 11.628906 2.304688 15.859375 6.492188l12.601562 12.460937c2.921876 2.890625 7.625 2.890625 10.546876 0l12.597656-12.460937c4.234375-4.1875 9.871094-6.492188 15.867187-6.492188 5.996094 0 11.628907 2.304688 15.863281 6.492188 4.203126 4.15625 6.515626 9.6875 6.515626 15.578124 0 5.886719-2.3125 11.417969-6.515626 15.570313l-49.605468 49.0625-49.597656-49.0625c-4.203126-4.152344-6.515626-9.683594-6.515626-15.570313 0-5.890624 2.3125-11.421874 6.515626-15.578124zm-22.269532 44.695312h7.164063c2.332031 0 4.539062.917969 6.210937 2.589844s2.59375 3.878906 2.59375 6.214844v70.179687c-8.839844.441406-17.285156 2.96875-24.769531 7.328125v-77.503906c-.003906-4.859375 3.945313-8.808594 8.800781-8.808594zm-9.214844 160.515625c-7.4375-7.355469-11.53125-17.144531-11.53125-27.566406 0-10.425781 4.097657-20.21875 11.53125-27.574219 7.46875-7.390625 17.410157-11.460938 27.992188-11.460938 10.578125 0 20.519531 4.070313 27.992188 11.460938l19.824218 19.609375c2.921875 2.890625 7.628906 2.890625 10.550782 0l19.824218-19.609375c7.476563-7.390625 17.417969-11.460938 27.992188-11.460938 10.578125 0 20.519531 4.070313 27.992187 11.460938 7.4375 7.355469 11.535157 17.148438 11.535157 27.574219-.003907 10.421875-4.097657 20.210937-11.535157 27.566406l-79.644531 78.773437c-.511719.507813-1.121094.582032-1.441406.582032-.316406 0-.933594-.074219-1.445313-.585938zm0 0"/><path d="m91.199219 264.019531c1.226562.390625 29.988281 10.03125 29.988281 47.066407 0 4.144531 3.359375 7.5 7.5 7.5 4.144531 0 7.5-3.355469 7.5-7.5 0-38.695313-26.515625-57.078126-40.535156-61.390626-3.941406-1.214843-8.105469.992188-9.339844 4.925782-1.238281 3.9375.957031 8.140625 4.886719 9.398437zm0 0"/><path d="m407.167969 249.695312c-.425781.128907-10.554688 3.316407-20.503907 12.5-9.140624 8.4375-20.03125 23.769532-20.03125 48.890626 0 4.144531 3.355469 7.5 7.5 7.5 4.140626 0 7.5-3.355469 7.5-7.5 0-37.003907 28.714844-46.65625 29.984376-47.066407 3.9375-1.230469 6.140624-5.414062 4.925781-9.363281-1.214844-3.957031-5.410157-6.183594-9.375-4.960938zm0 0"/></svg>