<?xml version="1.0" encoding="iso-8859-1"?>
<!-- Generator: Adobe Illustrator 19.0.0, SVG Export Plug-In . SVG Version: 6.00 Build 0)  -->
<svg version="1.1" id="Capa_1" xmlns="http://www.w3.org/2000/svg" xmlns:xlink="http://www.w3.org/1999/xlink" x="0px" y="0px"
	 viewBox="0 0 511.999 511.999" style="enable-background:new 0 0 511.999 511.999;" xml:space="preserve">
<path style="fill:#804ABF;" d="M474.494,149.976h-30.007l30.007,152.534c0,8.282,6.711,14.503,15.003,14.503
	c8.282,0,15.003-6.221,15.003-14.503V179.983C504.5,163.479,490.997,149.976,474.494,149.976z"/>
<path style="fill:#AB62FF;" d="M444.487,149.976h-36.706V302.51h30.005v161.186c0,10.132,8.212,18.354,18.354,18.354
	c10.132,0,18.354-8.222,18.354-18.354V179.983C474.494,163.479,460.991,149.976,444.487,149.976z"/>
<path style="fill:#804ABF;" d="M422.784,29.949v90.02c24.859,0,45.01-20.151,45.01-45.01S447.643,29.949,422.784,29.949z"/>
<path style="fill:#AB62FF;" d="M437.787,74.959c0-24.859-6.717-45.01-15.003-45.01c-24.859,0-45.01,20.151-45.01,45.01
	s20.151,45.01,45.01,45.01C431.07,119.969,437.787,99.818,437.787,74.959z"/>
<path style="fill:#3DB2FF;" d="M407.781,149.976h-30.007l30.007,152.534c0,8.282,6.711,14.503,15.003,14.503
	c8.282,0,15.003-6.221,15.003-14.503V179.983C437.787,163.479,424.284,149.976,407.781,149.976z"/>
<path style="fill:#7ACBFF;" d="M377.774,149.976h-36.706V302.51h30.005v161.186c0,10.132,8.212,18.354,18.354,18.354
	c10.132,0,18.354-8.222,18.354-18.354V179.983C407.781,163.479,394.278,149.976,377.774,149.976z"/>
<path style="fill:#3DB2FF;" d="M356.071,29.949v90.02c24.859,0,45.01-20.151,45.01-45.01S380.93,29.949,356.071,29.949z"/>
<path style="fill:#7ACBFF;" d="M371.075,74.959c0-24.859-6.717-45.01-15.003-45.01c-24.859,0-45.01,20.151-45.01,45.01
	s20.151,45.01,45.01,45.01C364.357,119.969,371.075,99.818,371.075,74.959z"/>
<path style="fill:#689E4E;" d="M341.068,149.976h-30.007l30.007,152.534c0,8.282,6.711,14.503,15.003,14.503
	c8.282,0,15.003-6.221,15.003-14.503V179.983C371.075,163.479,357.572,149.976,341.068,149.976z"/>
<path style="fill:#85C250;" d="M311.061,149.976h-36.706V302.51h30.005v161.186c0,10.132,8.212,18.354,18.354,18.354
	c10.132,0,18.354-8.222,18.354-18.354V179.983C341.068,163.479,327.565,149.976,311.061,149.976z"/>
<path style="fill:#689E4E;" d="M289.358,29.949v90.02c24.859,0,45.01-20.151,45.01-45.01S314.217,29.949,289.358,29.949z"/>
<path style="fill:#85C250;" d="M304.362,74.959c0-24.859-6.717-45.01-15.003-45.01c-24.859,0-45.01,20.151-45.01,45.01
	s20.152,45.01,45.01,45.01C297.644,119.969,304.362,99.818,304.362,74.959z"/>
<path style="fill:#FFCE47;" d="M274.355,149.976h-30.007l30.007,152.534c0,8.282,6.711,14.503,15.003,14.503
	c8.282,0,15.003-6.221,15.003-14.503V179.983C304.362,163.479,290.859,149.976,274.355,149.976z"/>
<path style="fill:#FFE290;" d="M244.348,149.976h-36.706V302.51h30.005v161.186c0,10.132,8.212,18.354,18.354,18.354
	c10.132,0,18.354-8.222,18.354-18.354V179.983C274.355,163.479,260.852,149.976,244.348,149.976z"/>
<path style="fill:#FFCE47;" d="M222.646,29.949v90.02c24.859,0,45.01-20.151,45.01-45.01S247.504,29.949,222.646,29.949z"/>
<path style="fill:#FFE290;" d="M237.649,74.959c0-24.859-6.717-45.01-15.003-45.01c-24.859,0-45.01,20.151-45.01,45.01
	s20.151,45.01,45.01,45.01C230.931,119.969,237.649,99.818,237.649,74.959z"/>
<path style="fill:#FF6E54;" d="M207.642,149.976h-30.007l30.007,152.534c0,8.282,6.712,14.503,15.003,14.503
	c8.282,0,15.003-6.221,15.003-14.503V179.983C237.649,163.479,224.146,149.976,207.642,149.976z"/>
<path style="fill:#FF9356;" d="M177.636,149.976h-36.706V302.51h30.005v161.186c0,10.132,8.212,18.354,18.354,18.354
	c10.132,0,18.354-8.222,18.354-18.354V179.983C207.642,163.479,194.139,149.976,177.636,149.976z"/>
<path style="fill:#FF6E54;" d="M155.933,29.949v90.02c24.859,0,45.01-20.151,45.01-45.01S180.791,29.949,155.933,29.949z"/>
<path style="fill:#FF9356;" d="M170.936,74.959c0-24.859-6.717-45.01-15.003-45.01c-24.859,0-45.01,20.151-45.01,45.01
	s20.151,45.01,45.01,45.01C164.219,119.969,170.936,99.818,170.936,74.959z"/>
<path style="fill:#D63D76;" d="M140.929,149.976h-30.007l30.007,152.534c0,8.282,6.712,14.503,15.003,14.503
	c8.282,0,15.003-6.221,15.003-14.503V179.983C170.936,163.479,157.433,149.976,140.929,149.976z"/>
<path style="fill:#FF71A1;" d="M37.506,149.976h30.007L37.506,302.01c0,8.282-6.721,15.003-15.003,15.003S7.5,310.292,7.5,302.01
	V179.983C7.5,163.479,21.003,149.976,37.506,149.976z"/>
<path style="fill:#FF4181;" d="M110.923,149.976h-43.41c-16.504,0-30.007,13.503-30.007,30.007v283.713
	c0,10.132,8.222,18.354,18.354,18.354c10.142,0,18.354-8.222,18.354-18.354V302.51h30.007v161.186
	c0,10.132,8.212,18.354,18.354,18.354c10.132,0,18.354-8.222,18.354-18.354V179.983
	C140.929,163.479,127.426,149.976,110.923,149.976z"/>
<path style="fill:#D63D76;" d="M89.22,29.949v90.02c24.859,0,45.01-20.151,45.01-45.01S114.078,29.949,89.22,29.949z"/>
<path style="fill:#FF4181;" d="M104.223,74.959c0-24.859-6.717-45.01-15.003-45.01c-24.859,0-45.01,20.151-45.01,45.01
	s20.151,45.01,45.01,45.01C97.506,119.969,104.223,99.818,104.223,74.959z"/>
<path d="M178.436,302.51V179.983c0-20.683-16.826-37.508-37.508-37.508H37.508C16.826,142.474,0,159.3,0,179.983V302.01
	c0,12.41,10.095,22.505,22.505,22.505c2.63,0,5.154-0.458,7.502-1.29v140.472c0,14.256,11.599,25.855,25.855,25.855
	s25.855-11.599,25.855-25.855V310.012H96.72v153.685c0,14.256,11.599,25.855,25.855,25.855c14.256,0,25.855-11.599,25.855-25.855
	V323.301c2.338,0.784,4.858,1.213,7.502,1.213C168.551,324.515,178.436,314.849,178.436,302.51z M148.429,302.51V194.986
	c0-4.143-3.359-7.502-7.502-7.502c-4.143,0-7.502,3.359-7.502,7.502v268.711c0,5.983-4.868,10.851-10.851,10.851
	s-10.851-4.868-10.851-10.851V302.51c0-4.143-3.359-7.502-7.502-7.502H74.215c-4.143,0-7.502,3.359-7.502,7.502v161.187
	c0,5.983-4.868,10.851-10.851,10.851S45.01,469.68,45.01,463.697V194.986c0-4.143-3.359-7.502-7.502-7.502s-7.502,3.359-7.502,7.502
	V302.01c0,4.137-3.365,7.502-7.502,7.502s-7.502-3.365-7.502-7.502V179.983c0-12.41,10.095-22.505,22.505-22.505h103.419
	c12.41,0,22.505,10.095,22.505,22.505V302.51c0,3.992-3.225,7.002-7.502,7.002C151.654,309.511,148.429,306.502,148.429,302.51z"/>
<path d="M474.492,142.474H192.884c-4.143,0-7.502,3.359-7.502,7.502c0,4.143,3.359,7.502,7.502,7.502h14.755
	c12.41,0,22.505,10.095,22.505,22.505V302.51c0,3.992-3.225,7.002-7.502,7.002c-4.277,0-7.502-3.01-7.502-7.002V194.986
	c0-4.143-3.359-7.502-7.502-7.502c-4.143,0-7.502,3.359-7.502,7.502v268.711c0,5.983-4.868,10.851-10.851,10.851
	c-5.983,0-10.851-4.868-10.851-10.851v-119.23c0-4.143-3.359-7.502-7.502-7.502s-7.502,3.359-7.502,7.502v119.23
	c0,14.256,11.599,25.855,25.855,25.855s25.855-11.599,25.855-25.855V323.301c2.338,0.784,4.858,1.213,7.502,1.213
	c2.644,0,5.164-0.429,7.502-1.213v140.395c0,14.256,11.599,25.855,25.855,25.855c14.256,0,25.855-11.599,25.855-25.855V323.301
	c2.338,0.784,4.858,1.213,7.502,1.213s5.164-0.429,7.502-1.213v140.395c0,14.256,11.599,25.855,25.855,25.855
	s25.855-11.599,25.855-25.855V323.301c2.338,0.784,4.858,1.213,7.502,1.213c2.644,0,5.164-0.429,7.502-1.213v140.395
	c0,14.256,11.599,25.855,25.855,25.855s25.855-11.599,25.855-25.855V323.301c2.338,0.784,4.858,1.213,7.502,1.213
	c2.644,0,5.164-0.429,7.502-1.213v140.395c0,14.256,11.599,25.855,25.855,25.855s25.855-11.599,25.855-25.855V323.301
	c2.338,0.784,4.858,1.213,7.502,1.213c12.62,0,22.505-9.666,22.505-22.005V179.983C512,159.3,495.173,142.474,474.492,142.474z
	 M289.356,309.511c-4.277,0-7.502-3.01-7.502-7.002V194.986c0-4.143-3.359-7.502-7.502-7.502c-4.143,0-7.502,3.359-7.502,7.502
	v268.711c0,5.983-4.868,10.851-10.851,10.851s-10.851-4.868-10.851-10.851V179.983c0-8.438-2.802-16.232-7.522-22.505h36.727
	c12.41,0,22.505,10.095,22.505,22.505V302.51C296.858,306.502,293.633,309.511,289.356,309.511z M356.069,309.511
	c-4.277,0-7.502-3.01-7.502-7.002V194.986c0-4.143-3.359-7.502-7.502-7.502s-7.502,3.359-7.502,7.502v268.711
	c0,5.983-4.868,10.851-10.851,10.851c-5.983,0-10.851-4.868-10.851-10.851V179.983c0-8.438-2.802-16.232-7.522-22.505h36.726
	c12.41,0,22.505,10.095,22.505,22.505V302.51C363.571,306.502,360.346,309.511,356.069,309.511z M422.782,309.511
	c-4.277,0-7.502-3.01-7.502-7.002V194.986c0-4.143-3.359-7.502-7.502-7.502s-7.502,3.359-7.502,7.502v268.711
	c0,5.983-4.868,10.851-10.851,10.851s-10.851-4.868-10.851-10.851V179.983c0-8.438-2.802-16.232-7.522-22.505h36.727
	c12.41,0,22.505,10.095,22.505,22.505V302.51C430.284,306.502,427.059,309.511,422.782,309.511z M496.997,302.51
	c0,3.992-3.225,7.002-7.502,7.002s-7.502-3.01-7.502-7.002V194.986c0-4.143-3.359-7.502-7.502-7.502
	c-4.143,0-7.502,3.359-7.502,7.502v268.711c0,5.983-4.868,10.851-10.851,10.851c-5.983,0-10.851-4.868-10.851-10.851V179.983
	c0-8.438-2.802-16.232-7.522-22.505h36.726c12.41,0,22.505,10.095,22.505,22.505V302.51z"/>
<path d="M89.218,127.471c12.654,0,24.275-4.5,33.351-11.982c9.341,7.678,21.141,11.982,33.361,11.982
	c12.654,0,24.275-4.499,33.351-11.982c9.341,7.678,21.14,11.982,33.36,11.982c12.654,0,24.276-4.5,33.352-11.982
	c9.341,7.678,21.14,11.982,33.361,11.982c12.654,0,24.275-4.499,33.351-11.982c9.341,7.678,21.14,11.982,33.36,11.982
	c12.654,0,24.276-4.5,33.352-11.982c9.341,7.678,21.14,11.982,33.361,11.982c28.955,0,52.512-23.556,52.512-52.512
	s-23.556-52.512-52.512-52.512c-12.221,0-24.02,4.304-33.361,11.982c-9.076-7.482-20.699-11.982-33.351-11.982
	c-12.221,0-24.02,4.303-33.36,11.982c-9.076-7.482-20.699-11.982-33.351-11.982c-12.221,0-24.02,4.304-33.361,11.982
	c-9.076-7.482-20.699-11.982-33.351-11.982c-12.221,0-24.02,4.303-33.36,11.982c-9.076-7.482-20.699-11.982-33.351-11.982
	c-12.221,0-24.02,4.304-33.361,11.982c-9.076-7.482-20.699-11.982-33.351-11.982c-28.955,0-52.512,23.556-52.512,52.512
	S60.262,127.471,89.218,127.471z M460.29,74.959c0,20.683-16.826,37.508-37.508,37.508c-8.474,0-16.665-2.897-23.242-8.084
	c5.703-8.399,9.041-18.529,9.041-29.425s-3.338-21.026-9.041-29.425c6.577-5.187,14.768-8.084,23.242-8.084
	C443.465,37.451,460.29,54.277,460.29,74.959z M393.578,74.959c0,20.683-16.826,37.508-37.508,37.508
	c-8.474,0-16.665-2.897-23.241-8.084c5.703-8.399,9.041-18.529,9.041-29.425s-3.338-21.026-9.041-29.425
	c6.576-5.187,14.768-8.084,23.242-8.084C376.751,37.451,393.578,54.277,393.578,74.959z M326.865,74.959
	c0,20.683-16.826,37.508-37.508,37.508c-8.474,0-16.665-2.897-23.242-8.084c5.703-8.399,9.041-18.529,9.041-29.425
	s-3.338-21.026-9.041-29.425c6.577-5.187,14.768-8.084,23.242-8.084C310.039,37.451,326.865,54.277,326.865,74.959z M260.152,74.959
	c0,20.683-16.826,37.508-37.508,37.508c-8.474,0-16.665-2.897-23.241-8.084c5.703-8.399,9.041-18.529,9.041-29.425
	s-3.338-21.026-9.041-29.425c6.576-5.187,14.768-8.084,23.242-8.084C243.325,37.451,260.152,54.277,260.152,74.959z M193.439,74.959
	c0,20.683-16.826,37.508-37.508,37.508c-8.474,0-16.666-2.897-23.242-8.084c5.703-8.399,9.041-18.529,9.041-29.425
	s-3.338-21.026-9.041-29.425c6.577-5.187,14.768-8.084,23.242-8.084C176.613,37.451,193.439,54.277,193.439,74.959z M89.218,37.451
	c20.683,0,37.508,16.826,37.508,37.508s-16.826,37.508-37.508,37.508S51.71,95.642,51.71,74.959S68.535,37.451,89.218,37.451z"/>
<g>
</g>
<g>
</g>
<g>
</g>
<g>
</g>
<g>
</g>
<g>
</g>
<g>
</g>
<g>
</g>
<g>
</g>
<g>
</g>
<g>
</g>
<g>
</g>
<g>
</g>
<g>
</g>
<g>
</g>
</svg>
