<?xml version="1.0" encoding="iso-8859-1"?>
<!-- Generator: Adobe Illustrator 19.0.0, SVG Export Plug-In . SVG Version: 6.00 Build 0)  -->
<svg version="1.1" id="Capa_1" xmlns="http://www.w3.org/2000/svg" xmlns:xlink="http://www.w3.org/1999/xlink" x="0px" y="0px"
	 viewBox="0 0 512.001 512.001" style="enable-background:new 0 0 512.001 512.001;" xml:space="preserve">
<circle style="fill:#FF8087;" cx="351.232" cy="135.76" r="128.26"/>
<path style="fill:#E6646E;" d="M379.292,235.96c-70.835,0-128.258-57.423-128.258-128.258c0-28.253,9.245-54.286,24.723-75.479
	c-31.942,23.328-52.779,60.954-52.779,103.535c0,70.835,57.423,128.258,128.258,128.258c42.582,0,80.208-20.837,103.535-52.779
	C433.578,226.715,407.545,235.96,379.292,235.96z"/>
<path style="fill:#B48764;" d="M273.172,354.484l-60.109-27.563c-5.697-2.612-9.35-8.305-9.35-14.573v-40.316h-73.697v40.316
	c0,6.268-3.652,11.961-9.35,14.573l-60.109,27.563c-18.06,8.281-29.169,26.816-27.96,46.647L38.902,504.5h255.925l6.305-103.368
	C302.342,381.3,291.232,362.766,273.172,354.484z"/>
<path style="fill:#E6646E;" d="M273.172,354.484l-45.682-20.947c-5.923,28.088-30.833,49.179-60.684,49.179
	c-29.834,0-54.731-21.067-60.671-49.132l-45.578,20.9c-18.06,8.282-29.17,26.816-27.96,46.648L38.902,504.5h255.925l6.305-103.369
	C302.342,381.299,291.232,362.766,273.172,354.484z"/>
<g>
	<path style="fill:#FF8087;" d="M73.842,394.346l-25.377-31.918c-10.725,9.637-16.776,23.802-15.867,38.704L38.902,504.5h46.896
		v-77.128C85.798,415.303,81.568,403.617,73.842,394.346z"/>
	<path style="fill:#FF8087;" d="M259.888,394.346l25.377-31.918c10.725,9.637,16.776,23.802,15.867,38.704L294.827,504.5h-46.896
		v-77.128C247.931,415.303,252.162,403.617,259.888,394.346z"/>
</g>
<circle style="fill:#6E4B53;" cx="166.902" cy="91.8" r="44.22"/>
<ellipse style="fill:#5C414B;" cx="166.902" cy="169.18" rx="88.44" ry="84.75"/>
<path style="fill:#503441;" d="M137.425,180.235c-29.479-29.479-33.885-54.893-33.189-70.842
	c-15.921,15.326-25.769,36.453-25.769,59.788c0,15.983,4.635,30.91,12.67,43.649L137.425,180.235z"/>
<path style="fill:#C39772;" d="M250.931,195.281c-0.59-0.192-4.225-0.307-4.225-0.307c-3.909,0-7.695,4.913-7.695,4.913
	l-13.026-12.692c0,0-57.115,4.342-95.526-23.046c-10.02,21.042-27.722,35.739-27.722,35.739l-17.149-4.913
	c-0.004,0-0.007,0.002-0.011,0.002c-0.807,0.015-1.633,0.1-2.473,0.262c-7.173,1.386-12.005,8.243-12.005,15.548v5.34
	c0,7.049,4.513,13.699,11.378,15.302c1.546,0.361,3.051,0.463,4.491,0.348c3.664-0.292,6.863,2.374,7.523,5.99
	c6.265,34.338,36.265,60.382,72.413,60.382s66.148-26.044,72.413-60.382c0.66-3.616,3.859-6.282,7.523-5.99
	c1.44,0.115,2.945,0.013,4.491-0.348c6.865-1.603,11.378-8.253,11.378-15.302v-6.715
	C262.709,202.476,257.527,197.424,250.931,195.281z"/>
<path style="fill:#B48764;" d="M181.517,296.649c-33.575-6.877-58.831-36.587-58.831-72.196v-47.049
	c-9.42,13.672-19.95,22.483-19.95,22.483l-17.149-4.913c-0.004,0-0.007,0.002-0.011,0.002c-0.808,0.015-1.633,0.1-2.474,0.262
	c-7.173,1.386-12.005,8.243-12.005,15.548v5.34c0,7.049,4.513,13.699,11.378,15.302c1.546,0.361,3.05,0.463,4.491,0.348
	c3.664-0.293,6.862,2.374,7.523,5.99c6.265,34.338,36.264,60.382,72.413,60.382C171.914,298.149,176.789,297.602,181.517,296.649
	L181.517,296.649z"/>
<path d="M351.236,0c-50.526,0-96.567,27.786-120.155,72.514c-1.933,3.664-0.529,8.2,3.135,10.132
	c3.664,1.935,8.2,0.529,10.132-3.135C265.333,39.719,306.29,15,351.236,15c66.586,0,120.758,54.172,120.758,120.758
	s-54.172,120.758-120.758,120.758c-22.687,0-44.793-6.324-63.928-18.29c-3.514-2.195-8.14-1.129-10.336,2.383
	c-2.196,3.512-1.129,8.14,2.383,10.336c21.522,13.458,46.378,20.571,71.88,20.571c74.857,0,135.758-60.901,135.758-135.758
	C486.994,60.901,426.093,0,351.236,0z"/>
<path d="M276.298,347.667l-60.109-27.563c-3.022-1.386-4.976-4.43-4.976-7.756v-19.905c18.055-11.799,31.25-30.658,35.407-53.137
	c0.006-0.007,0.013-0.015,0.02-0.022c2.138,0.128,4.3-0.063,6.425-0.567c9.911-2.346,17.104-11.851,17.104-22.601v-5.743
	c0-7.948-3.99-15.09-10.151-19.21c1.84-7.199,2.781-14.566,2.781-21.983c0-32.57-17.645-61.252-44.225-77.672
	c-0.158-28.384-23.291-51.427-51.711-51.427c-28.419,0-51.552,23.044-51.71,51.427c-26.581,16.42-44.226,45.102-44.226,77.673
	c0,7.396,0.936,14.744,2.765,21.924c-6.158,4.099-10.135,11.271-10.135,19.356v5.656c0,10.75,7.193,20.255,17.104,22.601
	c2.126,0.503,4.287,0.695,6.426,0.566c0.007,0.007,0.014,0.015,0.02,0.022c4.157,22.479,17.353,41.339,35.408,53.137v19.905
	c0,3.326-1.953,6.37-4.976,7.756l-60.11,27.563c-20.719,9.501-33.707,31.17-32.32,53.921l6.305,103.369
	c0.243,3.979,3.545,7.043,7.479,7.043c0.153,0,0.308-0.005,0.463-0.014c4.134-0.252,7.282-3.809,7.029-7.943L40.08,400.675
	c-0.575-9.438,2.24-18.619,7.551-26.062l20.446,24.534c6.589,7.908,10.218,17.931,10.218,28.224V504.5c0,4.143,3.358,7.5,7.5,7.5
	s7.5-3.357,7.5-7.5v-77.128c0-13.795-4.864-27.229-13.695-37.827l-21.133-25.359c1.651-1.08,3.39-2.048,5.213-2.884l35.933-16.477
	c10.241,27.934,37.015,46.934,67.248,46.934c30.33,0,57.014-18.972,67.246-46.935l35.935,16.478
	c1.823,0.836,3.563,1.804,5.213,2.884l-21.133,25.359c-8.832,10.598-13.695,24.031-13.695,37.827V504.5c0,4.143,3.358,7.5,7.5,7.5
	s7.5-3.357,7.5-7.5v-77.128c0-10.293,3.629-20.317,10.219-28.224l20.446-24.534c5.311,7.444,8.126,16.624,7.551,26.062
	l-6.305,103.368c-0.252,4.135,2.895,7.691,7.029,7.943c0.155,0.009,0.31,0.014,0.463,0.014c3.934,0,7.236-3.064,7.479-7.043
	l6.305-103.369C310.006,378.837,297.017,357.168,276.298,347.667z M166.865,55.081c17.424,0,32.042,12.203,35.782,28.509
	c-11.063-4.292-23.139-6.661-35.782-6.661c-12.642,0-24.718,2.369-35.781,6.66C134.824,67.284,149.441,55.081,166.865,55.081z
	 M101.844,236.498c-1.355-7.378-8.193-12.741-15.551-12.194c-0.707,0.051-1.44-0.01-2.174-0.184c-3.169-0.75-5.56-4.191-5.56-8.004
	v-5.656c0-3.832,2.579-7.287,5.871-7.864c2.767-0.487,5.425,0.531,7.104,2.722c1.397,1.822,3.26,3.125,5.392,3.77
	c3.114,0.939,6.55,0.388,9.19-1.477c6.095-4.302,11.262-9.76,15.356-16.22c2.217-3.499,1.179-8.132-2.32-10.35
	c-3.499-2.217-8.132-1.178-10.35,2.32c-2.334,3.683-5.126,6.919-8.329,9.656c-3.422-3.013-7.676-4.881-12.187-5.393
	c-1.559-6.042-2.359-12.224-2.359-18.444c0-42.596,36.308-77.251,80.936-77.251s80.936,34.655,80.936,77.251
	c0,6.212-0.797,12.384-2.352,18.418c-2.204,0.157-4.458,0.523-6.522,1.072l-6.068-4.99c-2.902-2.385-6.541-3.579-10.249-3.359
	c-6.757,0.398-24.649,0.867-44.829-3.391c-24.939-5.261-44.043-15.659-56.782-30.905c-2.656-3.179-7.386-3.602-10.564-0.946
	c-3.179,2.656-3.602,7.386-0.946,10.564c14.949,17.891,36.884,29.991,65.196,35.964c21.841,4.607,41.24,4.126,48.69,3.694
	l9.352,7.69c2.422,1.991,5.824,2.268,8.533,0.691c1.356-0.759,5.975-1.482,8.02-1.073c3.358,0.668,5.891,4.005,5.891,7.763v5.743
	c0,3.813-2.39,7.254-5.56,8.004c-0.734,0.174-1.464,0.234-2.172,0.184c-7.361-0.536-14.197,4.814-15.553,12.193
	c-5.763,31.378-33.108,54.152-65.021,54.152C134.952,290.649,107.607,267.875,101.844,236.498z M166.865,376.758
	c-24.303,0-45.774-15.525-53.558-38.211l10.487-4.809c8.337-3.822,13.724-12.219,13.724-21.391v-12.2
	c9.144,3.551,19.048,5.502,29.348,5.502s20.204-1.951,29.349-5.502v12.2c0,9.172,5.387,17.568,13.724,21.391l10.494,4.812
	C212.653,361.262,191.245,376.758,166.865,376.758z"/>
<path d="M366.967,173.063c28.048-8.261,44.655-36.298,38.628-65.217c-4.382-21.026-21.453-38.097-42.479-42.479
	c-16.769-3.494-33.877,0.588-46.933,11.203c-13.056,10.615-20.544,26.345-20.544,43.156c0,4.142,3.358,7.5,7.5,7.5
	s7.5-3.358,7.5-7.5c0-12.276,5.47-23.764,15.007-31.518s22.079-10.727,34.409-8.156c15.272,3.183,27.672,15.583,30.855,30.855
	c4.418,21.199-7.698,41.735-28.182,47.768c-11.36,3.346-18.993,13.201-18.993,24.522v0.658c0,4.142,3.358,7.5,7.5,7.5
	s7.5-3.358,7.5-7.5v-0.658C358.736,178.586,362.044,174.514,366.967,173.063z"/>
<path d="M351.316,208.419h-0.08c-4.142,0-7.46,3.358-7.46,7.5s3.398,7.5,7.54,7.5s7.5-3.358,7.5-7.5
	S355.458,208.419,351.316,208.419z"/>
<g>
</g>
<g>
</g>
<g>
</g>
<g>
</g>
<g>
</g>
<g>
</g>
<g>
</g>
<g>
</g>
<g>
</g>
<g>
</g>
<g>
</g>
<g>
</g>
<g>
</g>
<g>
</g>
<g>
</g>
</svg>
