<?xml version="1.0" encoding="iso-8859-1"?>
<!-- Generator: Adobe Illustrator 19.0.0, SVG Export Plug-In . SVG Version: 6.00 Build 0)  -->
<svg version="1.1" id="Layer_1" xmlns="http://www.w3.org/2000/svg" xmlns:xlink="http://www.w3.org/1999/xlink" x="0px" y="0px"
	 viewBox="0 0 512 512" style="enable-background:new 0 0 512 512;" xml:space="preserve">
<g>
	<path style="fill:#A67EFF;" d="M121.259,291.324c-26.382-25.047-68.067-24.652-93.942,1.224l0,0
		c-25.866,25.866-26.27,67.526-1.254,93.91l-0.032,0.032l1.287,1.287l77.279,77.279c9.204,9.204,24.126,9.204,33.329,0
		l77.279-77.279l1.287-1.287l-0.032-0.032c25.016-26.384,24.611-68.044-1.254-93.91l0,0
		C189.325,266.671,147.642,266.277,121.259,291.324z"/>
	<path style="fill:#A67EFF;" d="M485.937,386.461l0.03,0.03l-78.564,78.564c-8.679,8.679-22.437,9.175-31.693,1.48
		c-0.558-0.456-1.105-0.953-1.632-1.48l-77.277-77.277l-1.288-1.288l0.03-0.03c-12.298-12.977-18.452-29.655-18.452-46.323
		c0-17.225,6.57-34.451,19.709-47.591c25.874-25.874,67.554-26.269,93.944-1.227c8.07-7.665,17.57-12.937,27.618-15.847
		c6.114-1.754,12.42-2.636,18.726-2.636c17.225,0,34.451,6.57,47.591,19.709C510.553,318.411,510.949,360.07,485.937,386.461z"/>
</g>
<g>
	<path style="fill:#C8B7F9;" d="M485.937,386.461l0.03,0.03l-78.564,78.564c-8.679,8.679-22.437,9.175-31.693,1.48
		c54.83-78.057,48.949-156.794,42.653-191.062c6.114-1.754,12.42-2.636,18.726-2.636c17.225,0,34.451,6.57,47.591,19.709
		C510.553,318.411,510.949,360.07,485.937,386.461z"/>
	<path style="fill:#C8B7F9;" d="M216.446,386.461l0.03,0.03l-78.564,78.564c-8.679,8.679-22.437,9.175-31.693,1.48
		c54.83-78.057,48.949-156.794,42.653-191.062c6.114-1.754,12.42-2.636,18.726-2.636c17.226,0,34.451,6.57,47.591,19.709
		C241.063,318.411,241.458,360.07,216.446,386.461z"/>
</g>
<path d="M43.2,325.707h156.117c4.2,0,7.604-3.405,7.604-7.604s-3.404-7.604-7.604-7.604H43.2c-4.2,0-7.604,3.405-7.604,7.604
	S39,325.707,43.2,325.707z"/>
<path d="M208.619,341.859H91.298c-4.2,0-7.604,3.405-7.604,7.604s3.404,7.604,7.604,7.604h117.321c4.2,0,7.604-3.405,7.604-7.604
	S212.819,341.859,208.619,341.859z"/>
<path d="M73.556,349.463c0-4.199-3.404-7.604-7.604-7.604H33.899c-4.2,0-7.604,3.405-7.604,7.604s3.404,7.604,7.604,7.604h32.052
	C70.151,357.067,73.556,353.663,73.556,349.463z"/>
<path d="M185.878,373.22H56.64c-4.2,0-7.604,3.405-7.604,7.604c0,4.199,3.404,7.604,7.604,7.604h129.238
	c4.2,0,7.604-3.405,7.604-7.604C193.482,376.625,190.078,373.22,185.878,373.22z"/>
<path d="M158.998,404.579H83.521c-4.2,0-7.604,3.405-7.604,7.604c0,4.199,3.404,7.604,7.604,7.604h75.477
	c4.2,0,7.604-3.405,7.604-7.604C166.602,407.983,163.198,404.579,158.998,404.579z"/>
<path d="M126.518,435.939H116c-4.2,0-7.604,3.405-7.604,7.604c0,4.199,3.404,7.604,7.604,7.604h10.518
	c4.2,0,7.604-3.405,7.604-7.604C134.122,439.343,130.718,435.939,126.518,435.939z"/>
<path d="M312.682,325.707h156.117c4.2,0,7.604-3.405,7.604-7.604S473,310.5,468.799,310.5H312.682c-4.2,0-7.604,3.405-7.604,7.604
	S308.483,325.707,312.682,325.707z"/>
<path d="M303.381,341.859c-4.2,0-7.604,3.405-7.604,7.604s3.404,7.604,7.604,7.604H478.1c4.2,0,7.604-3.405,7.604-7.604
	s-3.404-7.604-7.604-7.604H303.381z"/>
<path d="M455.36,373.22H326.122c-4.2,0-7.604,3.405-7.604,7.604c0,4.199,3.404,7.604,7.604,7.604H455.36
	c4.2,0,7.604-3.405,7.604-7.604C462.964,376.625,459.559,373.22,455.36,373.22z"/>
<path d="M428.479,404.579h-75.477c-4.2,0-7.604,3.405-7.604,7.604c0,4.199,3.404,7.604,7.604,7.604h75.477
	c4.2,0,7.604-3.405,7.604-7.604C436.083,407.983,432.68,404.579,428.479,404.579z"/>
<path d="M395.999,435.939h-10.518c-4.2,0-7.604,3.405-7.604,7.604c0,4.199,3.404,7.604,7.604,7.604h10.518
	c4.2,0,7.604-3.405,7.604-7.604C403.603,439.343,400.199,435.939,395.999,435.939z"/>
<path d="M512,128.266c0-40.717-23.886-78.056-60.851-95.126c-3.814-1.761-8.333-0.097-10.091,3.716
	c-1.761,3.812-0.098,8.33,3.715,10.091c31.6,14.593,52.019,46.511,52.019,81.319v166.632c-2.054-2.702-4.294-5.288-6.732-7.727
	c-13.911-13.91-32.402-21.7-52.068-21.935c-17.26-0.191-33.836,5.446-47.252,16.038c-13.173-10.392-29.383-16.043-46.35-16.043
	c-0.485,0.002-0.992,0.031-1.479,0.119l-23.107,4.124c-0.438,0.078-0.867,0.195-1.285,0.348
	c-10.225,3.755-19.341,9.592-27.099,17.349c-12.389,12.389-19.907,28.419-21.572,45.671h-27.698
	c-1.665-17.253-9.183-33.282-21.572-45.671c-13.911-13.91-32.402-21.7-52.068-21.935c-17.254-0.191-33.835,5.447-47.251,16.037
	c-13.416-10.592-29.909-16.228-47.252-16.037c-19.666,0.235-38.158,8.025-52.067,21.935c-2.438,2.438-4.677,5.025-6.732,7.727
	V128.266c0-34.807,20.418-66.726,52.018-81.319c3.813-1.761,5.476-6.279,3.715-10.092c-1.759-3.812-6.275-5.477-10.091-3.716
	C23.886,50.21,0,87.549,0,128.266v212.239c0,0.169,0.014,0.335,0.025,0.501c0.209,18.663,7.224,36.342,19.917,50.042
	c0.216,0.289,0.453,0.563,0.711,0.821l78.564,78.564c6.076,6.077,14.058,9.115,22.04,9.115c7.983,0,15.965-3.039,22.042-9.115
	l78.565-78.566c0.259-0.26,0.495-0.533,0.709-0.818c11.086-11.964,17.835-26.961,19.512-42.998h27.826
	c1.678,16.036,8.427,31.033,19.511,42.997c0.216,0.289,0.453,0.563,0.711,0.821l78.564,78.564c5.888,5.887,13.715,9.13,22.041,9.13
	c8.326,0,16.154-3.242,22.041-9.13l78.564-78.564c0.253-0.253,0.486-0.523,0.699-0.807c12.696-13.696,19.714-31.369,19.928-50.03
	c0.012-0.174,0.026-0.349,0.026-0.526v-212.24H512z M210.938,381.226c-0.148,0.156-0.287,0.316-0.419,0.482l-77.971,77.972
	c-6.224,6.223-16.353,6.224-22.577,0l-77.971-77.972c-0.132-0.165-0.273-0.325-0.42-0.482
	c-10.747-11.334-16.559-26.187-16.369-41.824c0.192-15.665,6.401-30.396,17.482-41.477c11.086-11.087,25.822-17.294,41.495-17.482
	c15.61-0.209,30.501,5.636,41.835,16.395c2.935,2.786,7.537,2.786,10.471,0c11.334-10.76,26.239-16.592,41.835-16.395
	c15.672,0.188,30.409,6.395,41.495,17.482c11.081,11.081,17.29,25.811,17.481,41.477
	C227.497,355.038,221.684,369.892,210.938,381.226z M480.42,381.226c-0.148,0.155-0.286,0.315-0.418,0.479l-77.973,77.974
	c-3.016,3.015-7.025,4.675-11.288,4.675c-4.264,0-8.272-1.661-11.287-4.675l-77.972-77.972c-0.132-0.165-0.273-0.325-0.42-0.481
	c-10.747-11.334-16.559-26.188-16.368-41.825c0.191-15.666,6.401-30.396,17.481-41.477c6.031-6.032,13.087-10.605,20.979-13.6
	l21.754-3.884c15.186,0.13,29.579,5.938,40.596,16.397c2.935,2.786,7.537,2.786,10.471,0c11.158-10.593,25.728-16.4,41.105-16.4
	c0.242,0,0.487,0.001,0.73,0.004c15.672,0.188,30.409,6.395,41.495,17.482c11.081,11.081,17.29,25.811,17.481,41.477
	C496.98,355.038,491.166,369.892,480.42,381.226z"/>
<g>
</g>
<g>
</g>
<g>
</g>
<g>
</g>
<g>
</g>
<g>
</g>
<g>
</g>
<g>
</g>
<g>
</g>
<g>
</g>
<g>
</g>
<g>
</g>
<g>
</g>
<g>
</g>
<g>
</g>
</svg>
