<?xml version="1.0" encoding="utf-8"?>
<!-- Generator: Adobe Illustrator 23.0.1, SVG Export Plug-In . SVG Version: 6.00 Build 0)  -->
<svg version="1.1" xmlns="http://www.w3.org/2000/svg" xmlns:xlink="http://www.w3.org/1999/xlink" x="0px" y="0px"
	 viewBox="0 0 1100 800" style="enable-background:new 0 0 1100 800;" xml:space="preserve">
<style type="text/css">
	.st0{fill:#FFFFFF;}
	.st1{opacity:0.5;fill:#EED5D5;}
	.st2{fill:#474EBB;}
	.st3{fill:#687081;}
	.st4{fill:#353A85;}
	.st5{fill:#EAC1A4;}
	.st6{fill:#292949;}
	.st7{fill:#D9CAAF;}
	.st8{fill:#F2F2F2;}
	.st9{fill:#2E4661;}
	.st10{fill:#F7F7F7;}
	.st11{fill:#AA6755;}
	.st12{fill:#EBCEB1;}
	.st13{fill:#EDEDED;}
	.st14{fill:#FF0000;}
	.st15{font-family:'Tahoma-Bold';}
	.st16{font-size:57px;}
	.st17{fill:#E5E017;}
	.st18{fill:#008000;}
	.st19{fill:#0000FF;}
	.st20{fill:#8B008B;}
	.st21{fill:#6E92D3;}
	.st22{fill:#D67086;}
	.st23{fill:#C65270;}
	.st24{opacity:0.4;fill:#FFFFFF;}
	.st25{fill:#8CABEF;}
	.st26{fill:#F1F0F0;}
	.st27{fill:#E5E4E2;}
	.st28{fill:#FCFCFA;}
	.st29{clip-path:url(#SVGID_2_);}
	.st30{fill:#3B3387;}
	.st31{fill:#5B8ADD;}
	.st32{fill:#EED5D5;}
	.st33{opacity:0.1;}
	.st34{fill:#D8A0BC;}
	.st35{opacity:0.6;}
	.st36{fill:#E8C5C5;}
	.st37{fill:#E0B3B3;}
	.st38{opacity:0.6;fill:#FFFFFF;}
	.st39{fill:#EAEAEA;}
	.st40{fill:#F4F4F4;}
</style>
<g id="Background">
	<rect class="st0" width="1100" height="800"/>
</g>
<g id="Shadow">
	<path class="st1" d="M416.3,614.38c-71.69,0-140.75-11.02-212.52-8.64c-18.04,0.6-36.39,1.25-53.48,7.04
		c-25.32,8.57-61.5,38.26-29.12,59.92c19.74,13.21,51.52,16.68,74.73,15.89c24.91-0.85,48.18,7.7,72.82,8.53
		c32.66,1.11,66.04,3,96.58,15.59c30.98,12.77,57.98,34.31,90.96,42.32c10.67,2.59,21.64,3.66,32.57,4.72
		c24.15,2.34,48.56,4.68,72.59,1.3c33.74-4.74,52.07-25.53,79.98-40.27c31.03-16.39,67.28-32.79,102.94-32.93
		c57.68-0.22,108.79,14.59,166.36,3.39c19.45-3.78,78.86-20.47,52.65-51.09c-28.42-33.2-112.83-34.97-152.85-38.35
		c-60.22-5.09-120.77-3.02-181.01,0.6C558.45,606.68,487.51,613.5,416.3,614.38z"/>
</g>
<g id="Object">
	<g>
		<g>
			<g>
				<polygon class="st2" points="661.03,645.67 662.06,653.64 647.14,663.66 638.14,656.71 645.09,647.72 660.01,637.69 				"/>
				<g>
					<polygon class="st3" points="661.54,642.99 650.03,541.32 663.87,427.49 660.76,403.28 598.93,400.93 596.7,440.34 
						607.08,541.47 646.13,648.19 					"/>
				</g>
				<g>
					<polygon class="st3" points="553.56,412.33 553.39,514.93 574.05,647.01 588.91,646.86 597.08,524.72 616.21,402.46 					"/>
					<polygon class="st2" points="588.89,653.13 572.89,661.33 564.78,653.37 572.73,645.25 588.81,645.09 					"/>
				</g>
				<g>
					<path class="st4" d="M670.27,447.22c-0.14-4.45-0.39-8.16-0.42-9.48c-0.32-11.93-1.38-23.83-2.87-35.67
						c-1.34-10.61-3.03-36.96-4.84-47.5c-1.5-8.71-6.72-30.44-10.5-38.52c-9.39-20.09-6.49-21.94-47.73-27.91
						c-18.08-2.61-22.35,8.65-37.13,21.6c-1.46,1.28-1.38,8.88-1.72,10.9c-0.6,3.55-1.23,7.09-1.97,10.61
						c-0.57,2.77-1.21,5.53-1.92,8.28l0,0c0,0-12.41,56.46-20.61,68.45c-8.2,11.99-25.15,28.75,3.2,38.99
						c5.02,1.62,10.08,3.17,15.31,4c0,0,23.19-2.58,35.11-2.49c10.98,0.08,22.01,1.19,32.81,3.06c7.22,1.21,14.59,2.96,21.05,6.33
						c6.16,3.22,10.61,7.95,16.86,11.29c0.59,0.32,1.24,0.64,1.91,0.55C670.4,469.2,670.57,456.58,670.27,447.22z"/>
				</g>
				<g>
					<path class="st5" d="M603.85,293.8c2.08,1.03,6.99,1.4,12.12-0.61c1.03-0.4,1.73-1.4,1.71-2.51c-0.04-3.11-0.29-6.22-0.75-9.3
						c3.84-1.35,8.28-3.38,8.95-7.4c0.21-1.27-0.01-2.56-0.23-3.82c-0.9-5.23-1.81-10.45-2.71-15.68c-0.31-1.81-0.64-3.67-1.63-5.22
						c-1.73-2.72-5.07-3.91-8.24-4.46c-8.09-1.41-16.91,0.35-23.19,5.65c-1.67,1.41-3.18,3.11-3.92,5.17
						c-1.14,3.17-0.29,6.67,0.57,9.94c0.79,3.01,1.58,6.02,2.37,9.03c0.91,3.46,2.22,7.4,5.56,8.69c1.77,0.69,3.86,0.49,5.46,1.51
						C602.76,286.59,602.38,290.79,603.85,293.8z"/>
					<path class="st6" d="M557.14,241.68c-0.79-1.31-1.65-2.56-2.61-3.75c-2.08-2.56-4.63-4.75-6.3-7.59
						c-1.67-2.84-2.26-6.69-0.25-9.3c1.29-1.69,3.39-2.53,5.43-3.13c6.72-1.98,13.97-2.11,20.76-0.38
						c6.47,1.65,12.25,4.37,18.76,1.94c6.12-2.28,10.53-1.35,16.93,0.93c6.92,2.47,16.2,3.05,22.47,6.54
						c2.61,1.46,4.7,3.73,6.33,6.24c5.63,8.7,5.67,20.7,0.08,29.43c-1.25,1.96-2.75,3.75-4.33,5.46c-3.26,3.54-7.17,7.91-11.66,9.22
						c-0.11-4.02,3.55-16.68,0.47-19.97c-4.9-5.22-15.96-3.4-22.03-2.12c-6.62,1.4-12.53,6.09-19.09,7.1
						c-4.73,0.72-10.76-1.6-14.77-4.04C562.35,255.23,560.04,246.44,557.14,241.68z"/>
				</g>
				<polygon class="st4" points="638.14,295.86 663.87,318.4 692.58,378.73 656.32,421.87 650.08,397.75 				"/>
			</g>
			<g>
				<polygon class="st7" points="471.49,313.19 458.71,304.96 461.98,299.34 471.98,303.04 472.3,299.67 482.38,308.04 
					479.76,314.34 				"/>
				<polygon class="st4" points="591.16,290.01 524.48,317.35 482.38,308.04 478.27,316.09 516.66,344.36 569.58,338.06 				"/>
			</g>
			<polygon class="st7" points="624.74,431.31 611.55,438.87 608.07,433.38 615.96,426.2 613.11,424.37 625.18,419.27 
				629.56,424.49 			"/>
		</g>
		<g>
			<g>
				<polygon class="st8" points="405.46,652.41 405.1,659.38 418.7,667.08 426.04,660.46 419.42,653.12 405.82,645.43 				"/>
				<polygon class="st9" points="394.37,440.62 393.28,461.82 416.82,555.11 404.85,650.12 418.55,653.6 456.58,539.45 
					457.27,505.1 447.82,434.48 				"/>
			</g>
			<g>
				<polygon class="st9" points="498.58,438.62 509.13,527.19 504.69,643.32 491.84,644.7 472.4,540.07 443.49,436.45 				"/>
				<polygon class="st8" points="492.5,650.11 507.14,655.57 513.34,647.88 505.64,641.67 491.75,643.17 				"/>
			</g>
		</g>
		<g>
			<path class="st10" d="M503.77,423.87c-13.23-26.95-18.52-56.5-25.45-85.56c-2.05-8.58-4.18-17.34-8.95-24.75
				c-5.48-8.51-13.04-12.33-21.43-13.8c-10.67-1.87-22.66,0.07-33.34,0.96c-6.46,20.19-10.67,8.73-18.26,28.53
				c-1.57,4.1-6.04,39.64-7.69,43.71l0,0c0,0-17.44,54.61-11.86,97.79c0.06,0.43,0.1,0.84,0.15,1.26c1.13,0.19,2.21,0.39,3.22,0.59
				c15.05,3.05,30.41,4.69,45.77,4.49c13.63-0.18,27.26-1.83,40.49-5.1c18.12-4.48,39.63-2.65,54.44-14.59
				C516.54,448.57,508.11,432.72,503.77,423.87z"/>
		</g>
		<g>
			<polygon class="st10" points="347.84,306.73 362.72,225.92 375.37,228.37 375.95,289.34 			"/>
		</g>
		<polygon class="st10" points="347.84,306.73 421.7,354.86 411.2,305.6 365.82,284.88 		"/>
		<g>
			<path class="st11" d="M443.46,265.46c-9.59-14.45-34.27-13.66-34.63,6.26c-0.11,5.99,0.52,12.14,3.17,17.51
				c2.65,5.37,7.6,9.87,13.52,10.75c0.03,0.01,0.07,0.01,0.1,0.01c0.19,1.53,0.39,3.06,0.58,4.58c0.04,0.33,0.1,0.69,0.35,0.9
				c0.29,0.25,0.71,0.22,1.08,0.17c1.83-0.22,3.66-0.43,5.49-0.65c0.91-0.11,1.85-0.23,2.61-0.72c1.68-1.09,1.84-3.5,1.4-5.44
				c-0.11-0.47-0.24-0.93-0.37-1.39C446.19,291.05,449.73,274.9,443.46,265.46z"/>
			<g>
				<path class="st6" d="M404.21,248.46c-4.33,1-6.26,6.34-9.22,9.9c-2.46,2.97-5.84,4.83-8.54,7.54
					c-2.69,2.72-4.72,6.97-3.31,10.75c-3.97-0.42-8.24-0.78-11.66,1.38c-3.42,2.16-5.12,7.93-2.22,10.99
					c2.6,2.74,7.15,1.84,9.83,4.49c4.23,4.2,1.27,14.45,6.72,16.2c1.31,0.42,2.74,0.08,4.04,0.54c1.62,0.56,2.7,2.18,3.86,3.55
					c5.25,6.2,14.31,8.05,21.06,4.29c3.62-3.82,5.47-9.5,5.13-15.03c-0.41-6.67-4.39-7.49-7.11-12.84
					c-2.97-5.85-3.56-13.04-1.59-19.26c1.28-4.05,3.81-8.09,7.43-9.93c1.47-0.75,1.49,0.72,2.75-1.14c0.54-0.8,0.79-3.11,0.64-4.12
					C416.61,254.09,409.91,247.14,404.21,248.46z"/>
				<path class="st6" d="M450.56,238.99c2.34-0.24,4.6-1.23,6.96-1.13c3.54,0.14,4.59,3.35,6.51,5.74c2.13,2.64,5.1,6.15,8.01,7.72
					c2.1,1.13,4.48,1.3,6.74,1.92c2.26,0.62,4.62,1.92,5.51,4.28c0.84,2.24,0.13,4.83,0.78,7.14c1.04,3.42,2.28,4.9,2.58,8.69
					c0.16,1.96,0.3,4.04-0.55,5.75c-1.11,2.25-3.59,3.19-5.9,3.68c-2.31,0.49-4.78,0.77-6.63,2.32c-4.02,3.37-1.32,7.72-1.01,12.13
					c0.47,6.71-5.09,12.91-11.22,12.87c-5.2-0.04-9.85-4.23-11.66-9.46c-0.91-2.62-0.83-5.42-1.76-8.03
					c-0.9-2.52-3.66-5.41-2.18-8.27c0.36-0.7,0.97-1.23,1.24-1.97c0.23-0.6,0.21-1.28,0.12-1.93c-0.33-2.24-1.66-4.31-3.49-5.41
					c-1.32-0.79-2.89-1.13-3.96-2.28c-1.23-1.32-1.46-3.34-2.03-5.11c-1.39-4.28-5.28-7.48-9.4-7.73c-2.71-0.16-5.02,0.02-7.66-0.81
					c-0.4-0.13-6.55-2.37-6.32-1.45c-0.39-1.6-0.03-3.27,0.39-4.84c0.69-2.58,1.56-5.17,3.17-7.18c5.19-6.51,9.05,2.37,13.98-0.93
					c1.19-0.8,1.7-2.37,2.59-3.54c1.68-2.21,4.59-2.8,7.24-2.68C445.26,238.58,447.92,239.26,450.56,238.99z"/>
			</g>
		</g>
		<g>
			<g>
				<path class="st10" d="M469.28,345.21c1.39,6.15,6.47,11.98,10.95,18.39c5.26,7.53,10.52,15.06,15.78,22.6l-17.11,54.24
					l10.68,3.67l30.84-54.12c-0.03-21.62-19.33-32.7-24.39-44.83c-2.64-6.32-22.89-25.86-26.66-31.6c-5.55-8.44,2,5.82-4.79,12.68
					C458.9,331.98,468.18,340.33,469.28,345.21z"/>
			</g>
			<polygon class="st11" points="486.6,447.37 484.4,450.34 479.24,449.11 474.96,451.94 473.95,449.19 481.42,441.42 
				487.15,443.37 			"/>
		</g>
		<polygon class="st11" points="365.58,221.76 371.12,212.52 373.98,219 377.19,216.91 378.4,220.58 374.3,228.19 365.7,226.52 		
			"/>
		<g>
			<polygon class="st9" points="764.11,624.93 749.97,632.71 751.2,639.35 776.33,635.9 774.98,626.33 			"/>
			<polygon class="st9" points="828.06,632.21 837.9,632.09 840.3,640.43 840.05,640.5 840.12,640.5 823.73,649.92 815.99,650.68 
				815.12,641.83 817.23,640.33 			"/>
			<path class="st6" d="M797.73,475.31c-1.58-0.17-5.89,56.44-5.89,56.44l30.62,102.87l17.65-3.47l-10.75-102.71
				c0,0,37.37-43.1,26.61-75.29C839.71,461.03,797.73,475.31,797.73,475.31z"/>
			<path class="st6" d="M753.62,475.79l-3.57,50.47l9.85,100.45l18.17-0.93c0,0,4.38-95.14,6.18-97.08
				c1.8-1.94,17.28-51.86,17.28-51.86L753.62,475.79z"/>
			<g>
				<path class="st2" d="M777.51,498.82c57.72-1.06,61.95-30.18,74.66-33.36c12.71-3.18,6.08-18.31,6.08-18.31
					s-2.41-6.75-3.44-10.28c-7.41-25.41-29.67-58.03-29.67-58.04c-10.98-14.98-21.99-28.21-31.51-36.2
					c-28.29-23.76-58.6-24.87-58.6-24.87c-43.65,13.65-28.24,34.17-28.74,39.57c14.36,13.16,24.76,32.87,32.43,54.04
					c3.61,11.21,7.88,30.58,4.9,54.08c-0.96,7.54-2.06,14.08-3.16,19.77C740.25,492.66,747.4,499.3,777.51,498.82z"/>
				<path class="st0" d="M734.87,322.36c0,0-9.72-5.32-15.73,3.93c-7.3,11.24,33.99,61.91,33.01,170.29
					c10.82,2.19,38.7,7.42,67.46-6.15C813.07,458.24,784.87,361.13,734.87,322.36z"/>
			</g>
			<polygon class="st12" points="694.8,481.87 683.51,492.35 678.82,487.72 684.96,478.83 681.73,477.67 692.48,469.88 
				698.01,474.04 			"/>
			<path class="st2" d="M706.39,337.54l-3.94,9.14l3.76,67.22c0,0-19.9,57.54-19.36,57.54s13.44,4.3,13.44,4.3l29.04-58.07v-35.49
				L706.39,337.54z"/>
			<g>
				<path class="st6" d="M713.51,288.14c-4.89,3.82-9.14,11.93-7.45,18.31c0.81,3.07,3.03,5.14,3.77,8.46
					c1.48,6.55,12.87,11.37,8.08,18.98c-2.46,3.91-7.23,5.56-11.64,6.94c-0.53,0.17-1.1,0.34-1.65,0.23
					c-0.9-0.18-1.51-1.08-1.68-1.99c-0.17-0.91,0-1.84,0.1-2.75c1-9.59-5.49-19.2-7.89-28.26c-2.4-9.05-2.28-19.38,4-26.89
					c5.35,0.5,7.51-0.54,10.95,3.6L713.51,288.14z"/>
				<path class="st11" d="M724.97,326.51c-6.37,0.5-12.59-2.99-16.62-7.94c-4.04-4.95-6.16-11.19-7.48-17.44
					c-4.4-20.79,21.06-27.52,34.48-14.8C747.05,297.42,743.48,325.05,724.97,326.51z"/>
				<path class="st6" d="M756.67,322.6c-3.38-0.25-6.76-0.6-9.79-2.79c-4.9-3.54-7.79-11.51-10.8-16.56
					c-3.17-5.32-6.8-11.03-12.65-13.06c-3.82-1.33-7.22-0.46-10.81,0.98c-2.46,0.98-2.16,1.95-4.78,1.5c-2-0.34-4.61-2.77-5.72-4.37
					c-1.86-2.7-1.98-6.32-0.99-9.44c1.52-4.81,4.34-8.07,8.83-10.07c15.76-7.03,31.66-2.61,42.67,11.05
					c5.29,6.57,7.19,15.55,12.51,21.78c3.28,3.84,7.37,5.61,10.51,9.85c8.14,11.01,21.5,23.85,26.31,36.75
					c0.18,0.48,0.34,1.02,0.12,1.48c-0.45,0.94-1.85,0.61-2.77,0.15c-5.42-2.7-10.84-5.41-16.26-8.11
					c-2.13-1.06-4.29-2.14-6.04-3.75c-4.36-4-5.88-10.91-11.18-13.56C762.95,322.98,759.81,322.83,756.67,322.6z"/>
			</g>
			<g>
				<polygon class="st2" points="778.81,349.91 822.37,339.69 834.01,281.81 819.55,283.07 808.38,320.87 751.92,322.48 
					748.7,326.79 				"/>
			</g>
		</g>
		<path class="st12" d="M821.87,282.87l1.42-15.18l10.75-8.22l0.63,4.43l-3.79,3.79c0,0-0.95,4.43-3.64,6.64
			c0.32,2.53,2.37,7.91,2.37,7.91L821.87,282.87z"/>
		<g>
			
				<rect x="680.62" y="205.19" transform="matrix(9.239160e-03 -1 1 9.239160e-03 315.0379 1133.1222)" class="st13" width="97.43" height="404.78"/>
			<text transform="matrix(1 8.260440e-03 -8.260440e-03 1 535.0155 430.5934)"><tspan x="0" y="0" class="st14 st15 st16">VO</tspan><tspan x="82.35" y="0" class="st17 st15 st16">LU</tspan><tspan x="157.08" y="0" class="st18 st15 st16">NT</tspan><tspan x="235.9" y="0" class="st19 st15 st16">ÁR</tspan><tspan x="316.31" y="0" class="st20 st15 st16">IO</tspan></text>
		</g>
		<g>
			<g>
				<polygon class="st21" points="703.32,538.2 533.48,603.45 347.58,540.99 505.51,480.23 				"/>
			</g>
		</g>
		<g>
			<path id="XMLID_423_" class="st22" d="M467.31,103.44c-0.04-0.13-0.08-0.26-0.12-0.39c-8.38-24.35-33.66-40.59-60.14-31.48
				C386,78.81,379,98.13,379.71,113.71l0,0c-9.03-12.72-26.44-23.65-47.48-16.41c-26.48,9.11-36.42,37.47-28.04,61.82
				c0.04,0.13,0.1,0.25,0.14,0.38c1.68,5.35,20.36,59.21,116.95,75.13l0,0.01c0,0,0.01-0.01,0.01-0.01c0.01,0,0.01,0,0.02,0
				c0,0,0.01-0.01,0.01-0.01c0.01,0,0.01,0,0.02,0l0-0.01C487.69,162.64,469.28,108.69,467.31,103.44z"/>
			<path class="st23" d="M385.53,226.08c10.54,3.42,22.4,6.35,35.76,8.55l0,0.01c0,0,0.01-0.01,0.01-0.01c0.01,0,0.01,0,0.02,0
				c0,0,0.01-0.01,0.01-0.01s0.01,0,0.02,0l0-0.01c66.36-71.97,47.94-125.93,45.98-131.18c-0.04-0.13-0.08-0.26-0.12-0.39
				c-1.06-3.08-2.39-6.03-3.96-8.82C458.85,164.99,415.89,205.84,385.53,226.08z"/>
			<path class="st24" d="M310.61,163.12c0,0-16.53-46.21,31.47-63.34C342.08,99.79,312.02,119.03,310.61,163.12z"/>
		</g>
		<g>
			<g id="XMLID_420_">
				<g id="XMLID_422_">
					<polygon class="st4" points="265.13,633.08 264.1,639.64 250.4,644.55 245.09,637.17 252.46,631.43 266.16,626.52 					"/>
				</g>
				<g id="XMLID_421_">
					<polygon class="st2" points="284.37,500.05 266.13,631.05 253.15,632.02 249.28,519.19 242.63,483.07 					"/>
				</g>
			</g>
			<g id="XMLID_417_">
				<g id="XMLID_419_">
					<polygon class="st2" points="317.23,467.36 315.49,624.24 303.62,625.74 286.31,505.91 274.93,470.83 					"/>
				</g>
				<g id="XMLID_418_">
					<polygon class="st4" points="304.35,630.98 318.04,636.09 323.61,628.55 316.34,622.63 303.5,624.25 					"/>
				</g>
			</g>
			<g id="XMLID_416_">
				<path class="st25" d="M310.85,297.43c-9.03-8.44-32.22-5.31-44.28-6.03c1.16,0.07-15.5,66.61-16.25,72.46
					c-2.75,21.31-10.69,42.56-21.02,61.6c-4.36,8.03-6.76,16.41-10.03,24.94c-5.42,14.13-9.11,30.42-8.73,45.41
					c12.73,4.34,24.44,11.73,37.65,14.26c10.86,2.08,22.04,0.74,33.1,0.43c13.07-0.36,26.15,0.73,39.23,0.52
					c13.08-0.21,20.78-2.49,34.21-6.29c-3.82-22.02-3.82-22.02-6.47-32.94c-2.64-10.84-21.27-118.77-25.15-137.05
					c-2.17-10.19-4.46-28.72-11.51-36.57C311.35,297.92,311.11,297.67,310.85,297.43z"/>
			</g>
			<g id="XMLID_412_">
				<g id="XMLID_415_">
					<path class="st6" d="M292.85,259.82c5.96,1.46,13.07,7.05,14.14,13.49c0.51,3.1-0.65,5.86,0.03,9.16
						c1.32,6.51-7,15.47,0.4,20.38c3.8,2.53,8.77,2.08,13.31,1.54c0.55-0.07,1.13-0.14,1.58-0.46c0.74-0.53,0.93-1.59,0.71-2.47
						c-0.22-0.89-0.75-1.65-1.21-2.44c-4.79-8.24-2.83-19.53-4.33-28.68c-1.5-9.13-5.8-18.39-14.5-22.63
						c-4.62,2.61-8.14,7.11-9.56,12.23L292.85,259.82z"/>
				</g>
				<g id="XMLID_414_">
					<path class="st5" d="M298.07,299.06c5.94-2.13,10.14-7.79,11.77-13.89c1.63-6.1,1.02-12.58-0.32-18.75
						c-4.46-20.53-30.14-16.28-37.09,0.63C266.38,281.77,280.78,305.24,298.07,299.06z"/>
				</g>
				<g id="XMLID_413_">
					<path class="st6" d="M267.9,308.38c2.95-1.6,5.85-3.28,7.7-6.48c2.99-5.18,2.36-13.54,3.03-19.31c0.7-6.08,1.66-12.7,6.11-16.9
						c2.91-2.74,6.32-3.34,10.14-3.5c2.62-0.11,2.74,0.88,4.92-0.58c1.67-1.12,3.04-4.37,3.38-6.26c0.58-3.19-0.77-6.5-2.93-8.92
						c-3.32-3.72-7.18-5.51-12.05-5.5c-17.06,0.05-29.61,10.47-34,27.25c-2.11,8.06-0.18,16.94-2.46,24.7
						c-1.4,4.8-4.37,8.04-5.48,13.14c-2.88,13.23-9.73,30.22-8.84,43.8c0.03,0.5,0.11,1.06,0.49,1.38c0.78,0.66,1.91-0.2,2.56-0.99
						c3.79-4.63,7.58-9.27,11.37-13.9c1.49-1.82,3-3.67,3.93-5.83c2.31-5.38,0.88-12.22,4.59-16.75
						C262.39,311.26,265.17,309.86,267.9,308.38z"/>
				</g>
			</g>
			<g id="XMLID_410_">
				<g id="XMLID_411_">
					<polygon class="st25" points="330.02,314.51 345.73,394.34 297.86,416.34 293.17,401.66 326.76,368.54 303.39,338.22 
						306.25,305.96 					"/>
				</g>
			</g>
		</g>
		<g id="XMLID_408_">
			<g id="XMLID_409_">
				<path class="st5" d="M296.41,412.34c-2.9,1.85-11.95,2.96-14.98,0.83c-7.01-4.91,4.09-7,7.76-8.59
					c-0.94-1.12-1.89-2.17-2.59-3.42c-0.64-1.15,11.65-2.45,13.18-1.73c3.67,1.74,3.35,4.31,4.53,7.9
					C301.65,408.94,299.04,410.67,296.41,412.34z"/>
			</g>
		</g>
		<g id="XMLID_406_">
			<g id="XMLID_407_">
				<polygon class="st25" points="245.11,315.39 206.04,379.04 242.28,429.89 252.3,418.18 232.16,380.19 267.5,355.75 
					266.13,312.37 				"/>
			</g>
		</g>
		<g>
			
				<rect x="255.42" y="335.56" transform="matrix(0.9888 -0.1493 0.1493 0.9888 -65.8992 44.5221)" class="st6" width="16.15" height="250.95"/>
			<path class="st8" d="M229.86,529.91l7.09,46.91c6.73,44.53,52.54,56.27,52.54,56.27s40.3-24.74,33.58-69.27l-7.09-46.91
				L229.86,529.91z"/>
			<g>
				<g>
					<path class="st8" d="M246.83,350.72l-2.67-0.68c-1.59-0.41-39.08-10.43-44.77-48.12l-0.97-6.43l78.35-11.83l0.97,6.43
						c5.69,37.69-27.16,58.34-28.56,59.19L246.83,350.72z M213.69,306.33c6.02,19.49,24.15,27.75,31.02,30.24
						c5.89-4.41,20.72-17.54,20.68-38.05L213.69,306.33z"/>
				</g>
				
					<rect x="239.17" y="336.78" transform="matrix(0.9888 -0.1493 0.1493 0.9888 -50.0131 40.8885)" class="st8" width="16.15" height="33.33"/>
			</g>
		</g>
		<g id="XMLID_400_">
			<g id="XMLID_401_">
				<path class="st5" d="M243.75,427.88c1.95,2.83,9.86,7.36,13.49,6.58c8.37-1.8-1.05-8.04-3.82-10.93
					c1.3-0.66,2.58-1.26,3.71-2.15c1.03-0.81-9.79-6.78-11.48-6.71c-4.06,0.18-4.76,2.67-7.24,5.52
					C240.24,422.71,241.98,425.31,243.75,427.88z"/>
			</g>
		</g>
		<g>
			<g>
				
					<ellipse transform="matrix(0.1602 -0.9871 0.9871 0.1602 -153.4714 868.7332)" class="st26" cx="433.8" cy="524.56" rx="70.54" ry="70.54"/>
			</g>
			<g>
				<path class="st27" d="M470.7,464.44c7.02,10.97,11.1,24,11.1,37.99c0,38.96-31.58,70.54-70.54,70.54
					c-13.53,0-26.17-3.81-36.9-10.42c12.54,19.57,34.47,32.54,59.44,32.54c38.96,0,70.54-31.58,70.54-70.54
					C504.34,499.13,490.88,476.85,470.7,464.44z"/>
			</g>
			<g>
				<path class="st28" d="M372.85,530.85c0-36.17,29.32-65.49,65.49-65.49c21.14,0,39.94,10.02,51.91,25.57
					c-11.31-19.63-32.5-32.85-56.79-32.85c-36.17,0-65.49,29.32-65.49,65.49c0,15.03,5.07,28.87,13.58,39.92
					C376.02,553.89,372.85,542.74,372.85,530.85z"/>
			</g>
			<g>
				<defs>
					
						<ellipse id="SVGID_1_" transform="matrix(0.1602 -0.9871 0.9871 0.1602 -153.4714 868.7332)" cx="433.8" cy="524.56" rx="70.54" ry="70.54"/>
				</defs>
				<clipPath id="SVGID_2_">
					<use xlink:href="#SVGID_1_"  style="overflow:visible;"/>
				</clipPath>
				<g class="st29">
					<g>
						<path class="st30" d="M388,482.03l-1.64-1.23c0.33-0.45,8.37-11,24.22-17.08l0.73,1.91
							C396.01,471.51,388.08,481.93,388,482.03z"/>
					</g>
					<g>
						<path class="st30" d="M480.03,482.03c-0.08-0.1-8.04-10.54-23.32-16.4l0.73-1.91c15.85,6.08,23.89,16.63,24.22,17.08
							L480.03,482.03z"/>
					</g>
					<g>
						<path class="st30" d="M382.09,562.11c-4.81-5.14-8.6-13.32-11.26-24.33c-1.97-8.14-2.56-14.9-2.57-14.97l2.04-0.17
							c0.02,0.26,2.37,26.4,13.29,38.07L382.09,562.11z"/>
					</g>
					<g>
						<path class="st30" d="M485.72,562.11l-1.5-1.4c10.93-11.68,13.26-37.81,13.29-38.07l2.04,0.17c-0.01,0.07-0.6,6.83-2.57,14.97
							C494.32,548.79,490.53,556.97,485.72,562.11z"/>
					</g>
					<g>
						<path class="st30" d="M435.08,589.41c-9.2,0-16.46-1.75-16.91-1.86l0.49-1.99c0.16,0.04,16.52,3.98,31.03,0.01l0.54,1.98
							C445.11,588.94,439.84,589.41,435.08,589.41z"/>
					</g>
				</g>
				<g class="st29">
					<polygon class="st4" points="433.83,498.13 409.84,515.56 419,543.76 448.65,543.76 457.82,515.56 					"/>
				</g>
				<g class="st29">
					<polygon class="st4" points="433.83,482.86 457.82,465.43 448.65,437.23 419,437.23 409.84,465.43 					"/>
				</g>
				<g class="st29">
					<g>
						<polygon class="st4" points="411.34,559.01 381.69,559.38 372.87,587.69 397.07,604.82 420.85,587.1 						"/>
					</g>
					<g>
						
							<rect x="399.49" y="549.97" transform="matrix(0.4473 -0.8944 0.8944 0.4473 -263.216 676.0501)" class="st4" width="31.78" height="2.05"/>
					</g>
				</g>
				<g class="st29">
					<g>
						<polygon class="st4" points="394.97,509.51 388.25,480.63 358.71,478.1 347.17,505.42 369.58,524.83 						"/>
					</g>
					<g>
						
							<rect x="400.52" y="496.35" transform="matrix(0.3997 -0.9166 0.9166 0.3997 -228.4897 675.5667)" class="st4" width="2.05" height="31.78"/>
					</g>
				</g>
				<g class="st29">
					<g>
						<polygon class="st4" points="456.46,559.38 486.11,559.75 494.93,588.06 470.73,605.19 446.95,587.47 						"/>
					</g>
					<g>
						
							<rect x="451.39" y="535.47" transform="matrix(0.8944 -0.4472 0.4472 0.8944 -198.8184 260.549)" class="st4" width="2.05" height="31.78"/>
					</g>
				</g>
				<g class="st29">
					<g>
						<polygon class="st4" points="473.07,509.69 480.22,480.91 509.8,478.81 520.93,506.29 498.24,525.37 						"/>
					</g>
					<g>
						
							<rect x="450.57" y="511.28" transform="matrix(0.9224 -0.3861 0.3861 0.9224 -161.6385 219.8411)" class="st4" width="31.78" height="2.05"/>
					</g>
				</g>
				<g class="st29">
					<rect x="432.8" y="468.04" class="st4" width="2.05" height="33.47"/>
				</g>
			</g>
			<g>
				<g>
					<path class="st30" d="M411.4,572.97c-11.32,0-22.02-2.68-31.5-7.42l-0.98,3.15c8.92,11.1,21.13,19.45,35.15,23.56l6.91-5.15
						l-4.84-14.3C414.57,572.91,412.99,572.97,411.4,572.97z"/>
				</g>
				<g>
					<path class="st30" d="M456.59,559.38l-9.51,28.09l6.5,4.85c14.14-4.09,26.45-12.5,35.42-23.69l-2.77-8.88L456.59,559.38z"/>
				</g>
				<g>
					<path class="st30" d="M488.85,480.3l-8.5,0.6l-0.81,3.26c1.56,5.83,2.39,11.95,2.39,18.27c0,4.11-0.36,8.13-1.03,12.05
						l17.47,10.89l5.97-5.02C503.45,505.23,497.79,491.39,488.85,480.3z"/>
				</g>
			</g>
			<g>
				<path class="st4" d="M456.82,462.38c-7.26-2.77-15.13-4.29-23.36-4.29c-7.92,0-15.51,1.41-22.53,3.98l-1.09,3.37l5.59,4.06
					c7.13-2.67,14.85-4.13,22.92-4.13c5.75,0,11.32,0.75,16.63,2.14l2.85-2.07L456.82,462.38z"/>
			</g>
			<g>
				<path class="st4" d="M384.32,480.3c-10.14,11.51-16.31,26.61-16.34,43.15l1.6,1.39l3.79-2.29c1.72-13.6,7.61-25.89,16.35-35.57
					l-1.48-6.34L384.32,480.3z"/>
			</g>
		</g>
		<g>
			<g>
				<g>
					<path class="st31" d="M676.4,475.36c-0.24,2.07-1.72,3.74-3.21,5.12c-9.9,9.22-30.13,17.13-40.69,7.42
						c1.43,0.02,5,0.79,7.94,0.77c6.98-0.07,12.75-5.99,17.6-11.39c2.97-3.31,5.69-13.94,10.29-14.52
						C672.72,462.2,676.89,471.23,676.4,475.36z"/>
					<path class="st25" d="M637.35,473.73c4.27-5.71,8.16-9.13,13.1-12.85c4.94-3.71,11.12-6.03,17.03-4.89
						c0.7,0.14,1.42,0.33,1.98,0.79c0.65,0.52,1.03,1.32,1.39,2.1c1.99,4.27,6.25,10.31,5.66,15.61
						c-10.04-2.97-21.48-1.59-31.08,2.97c-7.16,3.41-12.59,11.18-13.25,11.04C625.89,487.15,635.34,476.42,637.35,473.73z"/>
				</g>
				<g>
					<path class="st31" d="M591.65,467.34c-0.22,2.08,0.86,4.03,2,5.71c7.63,11.17,25.61,23.35,38.05,16.21
						c-1.4-0.29-5.05-0.33-7.91-1c-6.79-1.6-11.11-8.66-14.66-14.99c-2.17-3.88-2.47-14.85-6.83-16.43
						C598.15,455.32,592.09,463.2,591.65,467.34z"/>
					<path class="st25" d="M630.11,474.36c-2.91-6.51-5.94-10.71-9.94-15.42s-9.51-8.34-15.53-8.52c-0.71-0.02-1.45,0.01-2.11,0.33
						c-0.75,0.37-1.29,1.06-1.82,1.74c-2.88,3.73-8.37,8.68-8.96,13.98c10.45-0.69,21.31,3.18,29.66,9.75
						c6.24,4.9,9.82,13.68,10.49,13.69C638.32,489.98,631.47,477.43,630.11,474.36z"/>
				</g>
			</g>
			<g>
				
					<rect x="565.98" y="488.93" transform="matrix(0.9938 0.111 -0.111 0.9938 63.8756 -66.2776)" class="st32" width="122.74" height="103.52"/>
				
					<rect x="561.88" y="489.17" transform="matrix(0.9938 0.111 -0.111 0.9938 59.6347 -66.991)" class="st22" width="139.52" height="26.14"/>
			</g>
			<g class="st33">
				<polygon points="574.39,509 691.18,522.04 690.14,531.3 				"/>
			</g>
			<path class="st25" d="M628.1,592.85l-15.1-1.69L624.64,487c0.12-1.06,1.04-1.82,2.06-1.71l11.41,1.27
				c1.02,0.11,1.75,1.06,1.63,2.12L628.1,592.85z"/>
		</g>
		<polygon class="st21" points="533.48,744.07 703.32,658.52 703.32,538.06 533.54,603.33 		"/>
		<polygon class="st25" points="533.48,744.07 347.58,661.88 347.58,540.94 533.54,603.33 		"/>
		<g>
			<g>
				<path class="st34" d="M788.13,273.16l-12.34-2.57c-2.68-0.56-4.39-3.18-3.84-5.85l-3.11-38.16c0.56-2.67,3.18-4.39,5.85-3.83
					l25.33,13.78c2.68,0.56,4.39,3.18,3.84,5.85l-9.87,26.95C793.42,272,790.8,273.71,788.13,273.16z"/>
				<path class="st34" d="M873.28,290.9l12.34,2.57c2.68,0.56,5.3-1.16,5.85-3.83l18.1-33.74c0.56-2.67-1.16-5.29-3.84-5.85
					l-28.72,2.51c-2.68-0.56-5.3,1.16-5.85,3.83l-1.72,28.65C868.89,287.73,870.61,290.35,873.28,290.9z"/>
				<path class="st32" d="M869.5,128.03l-2.68,12.88l-11.92-2.49l2.68-12.88c-50.33-7.81-83.42,21.65-91.72,61.48
					c-8.63,41.4,20.9,82.57,65.96,91.96c45.06,9.39,88.58-16.56,97.21-57.95C937.33,181.2,918.81,140.99,869.5,128.03z"/>
				<g>
					<path class="st32" d="M795.58,104.43c-0.3-0.09-0.63-0.01-0.85,0.21c-0.22,0.23-21.68,22.91-7.47,53.63
						c0.11,0.25,0.34,0.41,0.59,0.47c0.14,0.03,0.29,0.02,0.43-0.02l41.63-13.79c0.41-0.13,0.64-0.55,0.55-0.97
						C830.39,143.65,823.35,113.22,795.58,104.43z"/>
					<path class="st32" d="M931.7,133.19c-0.11-0.3-0.39-0.5-0.69-0.54c-28.97-3.04-47.58,22.05-47.76,22.3
						c-0.25,0.34-0.2,0.82,0.12,1.11l32.65,29.27c0.11,0.1,0.25,0.17,0.39,0.2c0.25,0.05,0.52-0.01,0.73-0.19
						C942.42,162.85,931.81,133.49,931.7,133.19z"/>
				</g>
				<g>
					<path class="st4" d="M827.06,172.55c0.61-2.94,3.5-4.83,6.44-4.21c2.94,0.61,4.83,3.49,4.22,6.43
						c-0.61,2.94-3.5,4.83-6.44,4.21S826.45,175.49,827.06,172.55z"/>
					<path class="st4" d="M868.04,181.09c0.61-2.94,3.5-4.83,6.44-4.21c2.94,0.61,4.83,3.49,4.22,6.43
						c-0.61,2.94-3.5,4.83-6.44,4.21C869.32,186.91,867.43,184.03,868.04,181.09z"/>
				</g>
				
					<ellipse transform="matrix(0.204 -0.979 0.979 0.204 462.9503 998.1385)" class="st34" cx="845.29" cy="214.37" rx="24.39" ry="32.67"/>
				<g class="st35">
					<path class="st0" d="M847.98,139.62l1.64-7.85c-36.67-3.59-70.02,17.44-76.8,49.95c-3.05,14.62-0.24,29.25,6.96,41.96
						c-4.19-10.62-5.44-22.2-3.03-33.75C783.18,159.07,813.55,138.55,847.98,139.62z"/>
				</g>
				<path class="st36" d="M775.43,240.07L775.43,240.07c11.64,19.06,31.68,33.77,56.39,38.92c45.06,9.39,88.58-16.56,97.21-57.95
					c1.83-8.77,2.35-17.55,1.54-26.06C876.45,310.69,775.43,240.07,775.43,240.07z"/>
				<path class="st37" d="M877.66,217.3c-19.52,20.82-44.95,14.05-57.75,10.05c4.88,5.14,12.01,9.15,20.41,10.9
					c17.66,3.68,34.21-4.03,36.96-17.21C877.53,219.79,877.65,218.55,877.66,217.3z"/>
				<path class="st38" d="M796.89,108.78c0,0-8.69,5.96-12.16,24.98c0,0,6.51-19.48,17.61-22.78L796.89,108.78z"/>
				<path class="st32" d="M815.9,206.91c0,0,5.71-14.32,23.51-14.34C839.4,192.58,827.16,195.24,815.9,206.91z"/>
				<path class="st37" d="M870.48,289.21c0.69,0.84,1.66,1.45,2.8,1.69l12.34,2.57c2.68,0.56,5.3-1.16,5.85-3.83l6.42-11.98
					C886.43,286.44,876.5,288.75,870.48,289.21z"/>
			</g>
			<g>
				<g>
					<path class="st39" d="M836.24,211.15c-0.56,2.71-2.33,4.63-3.94,4.3c-1.61-0.34-2.46-2.8-1.89-5.51
						c0.56-2.71,2.33-4.63,3.94-4.3C835.96,205.98,836.8,208.45,836.24,211.15z"/>
				</g>
				<g>
					<path class="st39" d="M860.7,216.25c-0.56,2.71-2.33,4.63-3.94,4.3c-1.61-0.34-2.46-2.8-1.89-5.51
						c0.56-2.71,2.33-4.63,3.94-4.3C860.41,211.07,861.26,213.54,860.7,216.25z"/>
				</g>
			</g>
		</g>
		<g id="XMLID_381_">
			<path id="XMLID_399_" class="st2" d="M500.71,505.28c8.64,1.34,14.56,9.44,13.22,18.08l0,0c-1.34,8.64-9.44,14.56-18.08,13.22
				l-22.68-3.52c-8.64-1.34-14.56-9.44-13.22-18.08l0,0c1.34-8.64,9.44-14.56,18.08-13.22L500.71,505.28z"/>
			<path id="XMLID_398_" class="st2" d="M485.76,559.36c8.56-6.26,20.57-4.39,26.83,4.17l0,0c6.26,8.56,4.39,20.57-4.17,26.83
				l-22.46,16.42c-8.56,6.26-20.57,4.39-26.83-4.17l0,0c-6.26-8.56-4.39-20.57,4.17-26.83L485.76,559.36z"/>
			<path id="XMLID_397_" class="st2" d="M569.84,572.42c-6.26-8.56-18.27-10.43-26.83-4.17l0,0c-8.56,6.26-10.43,18.27-4.17,26.83
				l16.42,22.46c6.26,8.56,18.27,10.43,26.83,4.17l0,0c8.56-6.26,10.43-18.27,4.17-26.83L569.84,572.42z"/>
			<path id="XMLID_396_" class="st2" d="M596.15,520.1c8.64,1.34,14.56,9.44,13.22,18.08l0,0c-1.34,8.64-9.44,14.56-18.08,13.22
				l-22.68-3.52c-8.64-1.34-14.56-9.44-13.22-18.08l0,0c1.34-8.64,9.44-14.56,18.08-13.22L596.15,520.1z"/>
			<path id="XMLID_395_" class="st2" d="M572.03,568.02c-3.73,24.03-26.24,40.49-50.27,36.75l0,0
				c-24.03-3.73-40.49-26.24-36.75-50.27l2.47-15.9c3.73-24.03,26.24-40.49,50.27-36.75l0,0c24.03,3.73,40.49,26.24,36.75,50.27
				L572.03,568.02z"/>
			<g id="XMLID_382_">
				
					<ellipse id="XMLID_394_" transform="matrix(0.4488 -0.8936 0.8936 0.4488 -127.4224 746.7841)" class="st2" cx="541.65" cy="476.68" rx="47.55" ry="47.55"/>
				
					<ellipse id="XMLID_393_" transform="matrix(0.1535 -0.9882 0.9882 0.1535 -40.3741 956.0173)" class="st40" cx="537.79" cy="501.57" rx="22.36" ry="40.33"/>
				<g id="XMLID_390_">
					
						<ellipse id="XMLID_392_" transform="matrix(0.4587 -0.8886 0.8886 0.4587 -118.936 690.2573)" class="st2" cx="507.06" cy="442.75" rx="22.22" ry="22.22"/>
					
						<ellipse id="XMLID_391_" transform="matrix(0.0745 -0.9972 0.9972 0.0745 87.7372 1004.2117)" class="st2" cx="584.91" cy="454.84" rx="22.22" ry="22.22"/>
				</g>
				<g id="XMLID_387_">
					<path id="XMLID_389_" class="st4" d="M524.87,466.72c-0.41,2.65-2.9,4.47-5.55,4.06c-2.65-0.41-4.47-2.9-4.06-5.55
						c0.41-2.65,2.9-4.47,5.55-4.06C523.47,461.59,525.29,464.07,524.87,466.72z"/>
					<path id="XMLID_388_" class="st4" d="M570.27,473.77c-0.41,2.65-2.9,4.47-5.55,4.06c-2.65-0.41-4.47-2.9-4.06-5.55
						c0.41-2.65,2.9-4.47,5.55-4.06C568.87,468.64,570.69,471.12,570.27,473.77z"/>
				</g>
				<path id="XMLID_386_" class="st4" d="M552.82,497.88c-0.9-1.23-2.62-1.5-3.85-0.6c-2.47,1.8-5.32,2.72-8.16,2.82l1.76-11.35
					c5.72-2.86,6.14-7.33,6.14-7.33c0.35-2.28-1.17-4.64-3.44-5l-6.99-1.08c-2.28-0.35-4.44,1.44-4.8,3.72c0,0.01,0,0.02,0,0.04
					c-0.08,0.43-0.7,4.58,3.64,8.81l-1.76,11.35c-2.68-0.95-5.12-2.69-6.92-5.16c-0.9-1.23-2.62-1.5-3.85-0.6
					c-1.23,0.9-1.5,2.62-0.6,3.85c3.29,4.5,8.1,7.23,13.21,8.03c5.11,0.79,10.52-0.36,15.02-3.64
					C553.45,500.83,553.71,499.1,552.82,497.88z"/>
				<g id="XMLID_383_">
					<path id="XMLID_385_" class="st0" d="M500.93,433.95c-4.96,4.34-5.46,11.88-1.13,16.84l17.96-15.71
						C513.43,430.11,505.89,429.61,500.93,433.95z"/>
					<path id="XMLID_384_" class="st0" d="M593.42,448.31c-3.41-5.64-10.75-7.44-16.39-4.03l12.35,20.42
						C595.03,461.29,596.83,453.95,593.42,448.31z"/>
				</g>
			</g>
		</g>
		<polygon class="st21" points="533.54,603.33 500.35,660.09 319.9,588.45 347.74,540.94 		"/>
		<polygon class="st25" points="733.74,575.98 572.43,652.28 533.54,603.33 703.5,538.06 		"/>
	</g>
</g>
</svg>
